<svg width="359" height="359" xmlns="http://www.w3.org/2000/svg" xmlns:xlink="http://www.w3.org/1999/xlink" xml:space="preserve" overflow="hidden"><g transform="translate(-114 -62)"><path d="M433.734 216.071C435.205 211.734 435.963 207.187 435.978 202.608 435.866 181.445 420.847 163.297 400.078 159.229 393.871 141.007 376.697 128.804 357.447 128.939 353.927 128.942 350.417 129.318 346.976 130.06 339.001 120.812 327.73 115.042 315.564 113.98 314.609 113.923 313.657 113.894 312.708 113.893 301.46 113.833 290.6 118.002 282.281 125.573 274.612 120.373 265.563 117.584 256.298 117.567 237.403 117.569 220.554 129.461 214.221 147.262L211.603 147.262C187.05 147.115 166.993 166.837 166.728 191.39L166.728 193.633C151.79 201.906 143.03 218.113 144.291 235.143 145.786 258.702 166.728 276.278 190.661 276.278L248.625 276.278C273.325 276.277 293.463 296.082 293.874 320.779L293.874 368.646 301.353 368.586 301.353 320.666C300.778 291.927 277.37 268.901 248.625 268.799L190.661 268.799C170.06 268.799 152.97 253.807 151.754 234.657 150.649 220.517 157.914 207.038 170.332 200.187L174.207 198.055 174.207 193.633 174.207 191.502C174.383 171.024 191.126 154.566 211.603 154.742L219.472 154.742 221.255 149.802C226.518 134.965 240.554 125.049 256.298 125.046 264.071 125.049 271.663 127.39 278.087 131.765L282.979 135.079 287.335 131.087C294.275 124.782 303.331 121.315 312.708 121.373 313.466 121.373 314.226 121.395 314.989 121.438 325.154 122.339 334.57 127.156 341.249 134.871L344.168 138.346 348.598 137.362C351.507 136.739 354.472 136.423 357.447 136.418 373.516 136.268 387.862 146.458 393.012 161.681L394.415 165.724 398.611 166.564C415.87 169.956 428.361 185.02 428.499 202.608 428.48 206.383 427.852 210.13 426.639 213.705L425.352 217.567 427.895 220.745C437.786 233.209 438.416 250.659 429.45 263.804L428.181 265.643 428.128 267.877 428.118 268.498C428.135 269.48 428.063 270.461 427.901 271.43 422.847 296.362 398.417 307.76 392.305 309.407L392.008 309.472C380.89 311.836 362.67 321.776 360.625 361.167L360.307 368.646 367.918 368.646C367.918 320.031 391.103 317.414 394.095 316.666 403.818 314.048 429.621 300.585 435.23 272.913 435.509 271.307 435.634 269.68 435.604 268.051 446.453 252.191 445.695 231.111 433.734 216.071Z"/><path d="M386.661 232.875C391.786 229.619 396.404 225.624 400.363 221.021 406.962 212.187 408.856 196.874 408.934 196.227 409.18 194.176 407.717 192.315 405.666 192.069 403.615 191.823 401.754 193.286 401.508 195.337 401.489 195.477 399.766 209.323 394.37 216.545 392.112 219.276 389.508 221.701 386.624 223.76 385.756 211.667 380.224 200.384 371.193 192.295 366.309 188.369 360.991 185.017 355.343 182.302 356.26 178.981 357.817 175.87 359.927 173.145 363.033 169.84 366.957 167.416 371.303 166.118 373.304 165.607 374.512 163.57 374.001 161.569 373.49 159.568 371.453 158.36 369.452 158.871 369.433 158.876 369.412 158.881 369.393 158.887 363.565 160.578 358.315 163.839 354.217 168.314 351.579 171.636 349.6 175.431 348.386 179.495 345.869 178.622 343.323 177.8 340.814 177.027 333.618 175.234 326.745 172.333 320.44 168.426 315.297 164.58 312.138 158.641 311.822 152.227 311.896 149.602 311.917 147.108 311.917 147.108 311.935 145.043 310.276 143.354 308.21 143.336 306.145 143.317 304.456 144.976 304.438 147.042 304.438 147.042 304.415 149.467 304.346 152.021 304.604 160.931 308.94 169.228 316.109 174.524 317.721 175.659 319.408 176.684 321.158 177.594 315.946 178.968 309.557 180.598 305.056 181.562 290.487 184.788 275.351 184.402 260.966 180.436 250.785 176.8 242.246 169.632 236.901 160.234 235.937 158.408 233.675 157.708 231.848 158.672 230.053 159.619 229.341 161.826 230.245 163.643 236.465 174.855 246.606 183.376 258.722 187.572 259.103 187.691 259.484 187.759 259.864 187.873 255.589 192.099 250.868 195.849 245.783 199.056 233.655 205.125 219.913 207.181 206.54 204.927 201.068 203.614 195.971 201.062 191.64 197.469 190.086 196.109 187.723 196.267 186.363 197.821 185.012 199.365 185.158 201.709 186.688 203.074 192.004 207.546 198.304 210.694 205.072 212.26 208.839 212.984 212.667 213.344 216.503 213.335 212.165 215.99 208.189 219.196 204.672 222.871 197.286 231.1 192.936 241.608 192.344 252.651 192.36 254.705 194.03 256.361 196.084 256.358L196.095 256.358C198.156 256.349 199.822 254.676 199.823 252.615 200.474 243.406 204.161 234.673 210.306 227.784 216.946 220.174 235.586 211.096 236.428 210.688 240.942 209.514 245.301 207.806 249.41 205.6 256.353 201.107 262.76 195.834 268.506 189.887L268.522 189.862C273.701 190.759 278.948 191.214 284.204 191.223 290.874 191.212 297.53 190.595 304.088 189.378 299.765 196.152 297.276 203.932 296.866 211.957 296.908 217.88 297.852 223.761 299.668 229.398 294.69 228.649 289.758 227.627 284.893 226.337 281.147 225.071 277.555 223.389 274.184 221.323 272.438 220.218 270.128 220.737 269.023 222.483 267.918 224.228 268.437 226.538 270.182 227.643 274.104 230.061 278.292 232.018 282.661 233.477 289.348 235.19 296.124 236.53 302.959 237.492 303.808 239.219 304.786 240.879 305.884 242.459 308.188 245.723 310.815 248.747 313.724 251.485 315.263 252.863 317.628 252.734 319.007 251.195 320.385 249.656 320.255 247.291 318.717 245.913 316.219 243.537 313.959 240.923 311.97 238.109 307.015 230.284 304.372 221.219 304.345 211.957 304.345 199.789 314.638 187.143 314.793 186.954 322.968 184.918 331.683 182.509 332.176 182.372 332.283 182.342 332.359 182.265 332.461 182.228 334.513 182.909 336.575 183.547 338.617 184.175 342.296 185.306 345.77 186.376 349.068 187.671 355.209 190.302 360.975 193.734 366.216 197.876 374.41 205.192 379.164 215.605 379.325 226.589 379.39 230.873 379.051 235.155 378.311 239.375 372.881 237.532 367.322 236.096 361.678 235.08 356.608 234.701 351.517 234.693 346.446 235.057 344.385 235.195 342.827 236.977 342.965 239.038 343.103 241.099 344.886 242.658 346.946 242.519 351.523 242.18 356.119 242.172 360.696 242.496 366.073 243.501 371.37 244.896 376.546 246.668 374.545 252.769 371.373 258.42 367.207 263.307 363.495 267.082 359.359 270.416 354.882 273.243 344.448 280.546 332.623 288.823 328.971 302.218 327.844 308.471 327.194 314.801 327.027 321.153 327.027 323.771 326.983 359.795 326.973 368.646L334.452 368.646C334.463 359.776 334.506 323.768 334.506 321.153 334.674 315.465 335.236 309.796 336.189 304.186 339.131 293.399 349.778 285.947 359.172 279.371 363.898 276.327 368.285 272.788 372.261 268.815 375.082 272.181 378.151 275.331 381.443 278.238 385.641 281.672 391.652 285.749 391.906 285.92 393.62 287.073 395.943 286.619 397.096 284.905 398.245 283.198 397.799 280.884 396.098 279.726 396.04 279.686 390.111 275.666 386.18 272.45 382.862 269.449 379.77 266.209 376.926 262.755 382.829 253.87 386.189 243.54 386.645 232.883Z"/></g></svg>