<svg width="423" height="424" xmlns="http://www.w3.org/2000/svg" xmlns:xlink="http://www.w3.org/1999/xlink" xml:space="preserve" overflow="hidden"><g transform="translate(-363 -246)"><path d="M144.494 183.771C146.215 185.492 149.004 185.492 150.725 183.771L176.25 158.246 201.775 183.771C203.526 185.462 206.315 185.414 208.006 183.663 209.655 181.956 209.655 179.248 208.006 177.541L182.48 152.016 208.006 126.49C209.697 124.74 209.648 121.95 207.897 120.26 206.19 118.611 203.483 118.611 201.775 120.26L176.25 145.785 150.725 120.26C148.974 118.569 146.185 118.618 144.494 120.368 142.845 122.076 142.845 124.783 144.494 126.49L170.02 152.016 144.494 177.541C142.774 179.262 142.774 182.051 144.494 183.771Z" transform="matrix(1 0 0 1.00236 363 246)"/><path d="M304.943 243.635C303.223 241.915 300.434 241.915 298.713 243.635L273.188 269.16 247.662 243.635C245.911 241.944 243.122 241.993 241.432 243.743 239.782 245.451 239.782 248.158 241.432 249.865L266.957 275.391 241.432 300.916C239.681 302.607 239.633 305.396 241.323 307.146 243.014 308.897 245.804 308.946 247.554 307.255 247.591 307.219 247.627 307.183 247.662 307.146L273.188 281.621 298.713 307.146C300.464 308.837 303.253 308.789 304.943 307.038 306.593 305.331 306.593 302.623 304.943 300.916L279.418 275.391 304.943 249.865C306.664 248.145 306.664 245.355 304.943 243.635Z" transform="matrix(1 0 0 1.00236 363 246)"/><path d="M177.268 308.438C195.518 307.734 210.279 293.343 211.447 275.117 212.445 256.652 199.004 240.554 180.656 238.242L180.656 229.125C180.656 221.824 186.574 215.906 193.875 215.906L255.562 215.906C267.73 215.906 277.594 206.042 277.594 193.875L277.594 134.117C277.594 134.093 277.614 134.074 277.638 134.074 277.65 134.074 277.661 134.079 277.669 134.087L300.916 157.334C302.667 159.025 305.456 158.976 307.146 157.226 308.796 155.518 308.796 152.811 307.146 151.104L276.303 120.26C276.263 120.22 276.206 120.207 276.166 120.167 275.791 119.8 275.354 119.502 274.875 119.286L274.875 119.286C274.84 119.286 274.796 119.286 274.756 119.26 274.313 119.093 273.845 119.001 273.373 118.986 273.225 118.987 273.078 118.996 272.932 119.013 272.561 119.035 272.195 119.106 271.844 119.224 271.693 119.266 271.546 119.318 271.403 119.379 270.911 119.587 270.463 119.886 270.081 120.26L239.237 151.104C237.547 152.854 237.595 155.643 239.346 157.334 241.053 158.983 243.76 158.983 245.468 157.334L268.715 134.087C268.732 134.069 268.761 134.07 268.777 134.087 268.785 134.095 268.79 134.106 268.79 134.117L268.79 193.875C268.79 201.176 262.872 207.094 255.571 207.094L193.875 207.094C181.708 207.094 171.844 216.958 171.844 229.125L171.844 238.242C152.537 240.746 138.916 258.426 141.42 277.733 143.742 295.638 159.219 308.894 177.268 308.438ZM176.25 246.75C190.851 246.75 202.688 258.587 202.688 273.188 202.688 287.788 190.851 299.625 176.25 299.625 161.649 299.625 149.812 287.788 149.812 273.188 149.83 258.594 161.656 246.767 176.25 246.75Z" transform="matrix(1 0 0 1.00236 363 246)"/><path d="M85.7104 282 96.9375 282 96.9375 317.25 85.7104 317.25C79.7465 317.258 74.9137 322.09 74.9062 328.054L74.9062 328.975C74.9111 334.665 79.5227 339.276 85.2125 339.281L88.125 339.281C90.5586 339.281 92.5312 337.309 92.5312 334.875 92.5312 332.441 90.5586 330.469 88.125 330.469L85.2125 330.469C84.3876 330.469 83.7188 329.8 83.7188 328.975L83.7188 328.054C83.721 326.955 84.6115 326.065 85.7104 326.062L96.9375 326.062 96.9375 352.5C96.9375 354.934 98.9102 356.906 101.344 356.906L348.094 356.906C350.527 356.906 352.5 354.934 352.5 352.5L352.5 74.9062C352.5 72.4727 350.527 70.5 348.094 70.5L101.344 70.5C98.9102 70.5 96.9375 72.4727 96.9375 74.9062L96.9375 96.9375 85.7104 96.9375C79.7465 96.945 74.9137 101.778 74.9062 107.742L74.9062 108.663C74.9111 114.352 79.5227 118.964 85.2125 118.969L88.125 118.969C90.5586 118.969 92.5312 116.996 92.5312 114.562 92.5312 112.129 90.5586 110.156 88.125 110.156L85.2125 110.156C84.3876 110.156 83.7188 109.487 83.7188 108.663L83.7188 107.742C83.721 106.643 84.6115 105.752 85.7104 105.75L96.9375 105.75 96.9375 141 85.7104 141C79.7465 141.007 74.9137 145.84 74.9062 151.804L74.9062 152.725C74.9111 158.415 79.5227 163.026 85.2125 163.031L88.125 163.031C90.5586 163.031 92.5312 161.059 92.5312 158.625 92.5312 156.191 90.5586 154.219 88.125 154.219L85.2125 154.219C84.3876 154.219 83.7188 153.55 83.7188 152.725L83.7188 151.804C83.721 150.705 84.6115 149.815 85.7104 149.812L96.9375 149.812 96.9375 185.062 85.7104 185.062C79.7465 185.07 74.9137 189.903 74.9062 195.867L74.9062 196.788C74.9111 202.477 79.5227 207.089 85.2125 207.094L88.125 207.094C90.5586 207.094 92.5312 205.121 92.5312 202.688 92.5312 200.254 90.5586 198.281 88.125 198.281L85.2125 198.281C84.3876 198.281 83.7188 197.612 83.7188 196.788L83.7188 195.867C83.721 194.768 84.6115 193.877 85.7104 193.875L96.9375 193.875 96.9375 229.125 85.7104 229.125C79.7465 229.132 74.9137 233.965 74.9062 239.929L74.9062 240.85C74.9111 246.54 79.5227 251.151 85.2125 251.156L88.125 251.156C90.5586 251.156 92.5312 249.184 92.5312 246.75 92.5312 244.316 90.5586 242.344 88.125 242.344L85.2125 242.344C84.3876 242.344 83.7188 241.675 83.7188 240.85L83.7188 239.929C83.721 238.83 84.6115 237.94 85.7104 237.938L96.9375 237.938 96.9375 273.188 85.7104 273.188C79.7465 273.195 74.9137 278.028 74.9062 283.992L74.9062 284.913C74.9111 290.602 79.5227 295.214 85.2125 295.219L88.125 295.219C90.5586 295.219 92.5312 293.246 92.5312 290.812 92.5312 288.379 90.5586 286.406 88.125 286.406L85.2125 286.406C84.3876 286.406 83.7188 285.737 83.7188 284.913L83.7188 283.992C83.721 282.893 84.6115 282.003 85.7104 282ZM105.75 79.3125 343.688 79.3125 343.688 348.094 105.75 348.094Z" transform="matrix(1 0 0 1.00236 363 246)"/></g></svg>