<svg width="404" height="403" xmlns="http://www.w3.org/2000/svg" xmlns:xlink="http://www.w3.org/1999/xlink" xml:space="preserve" overflow="hidden"><g transform="translate(-567 -250)"><path d="M16.7917 297.632C14.4732 297.628 12.5973 295.745 12.6017 293.426 12.6047 291.82 13.5241 290.356 14.9698 289.656L133.771 232.565C140.322 228.762 147.748 226.725 155.323 226.654L256.073 226.654C267.665 226.654 277.062 236.051 277.062 247.643 277.062 259.236 267.665 268.633 256.073 268.633L180.51 268.633C178.192 268.633 176.312 266.754 176.312 264.435 176.312 262.117 178.192 260.237 180.51 260.237L256.073 260.237C263.028 260.237 268.667 254.599 268.667 247.643 268.667 240.688 263.028 235.05 256.073 235.05L155.323 235.05C149.117 235.106 143.035 236.796 137.692 239.953L18.6136 297.212C18.0461 297.489 17.423 297.633 16.7917 297.632Z" transform="matrix(1.00248 0 0 1 567 250)"/><path d="M75.5625 356.403C73.244 356.403 71.365 354.523 71.3654 352.204 71.3658 351.091 71.8079 350.024 72.5946 349.237 98.4831 323.345 133.38 310.226 176.312 310.226L254.814 310.226C257.568 310.213 260.245 309.31 262.445 307.653L377.594 223.463C380.268 220.872 381.848 217.356 382.01 213.636 382.01 206.681 376.372 201.042 369.417 201.042 367.121 200.976 364.859 201.608 362.931 202.856L290.916 244.151C288.88 245.261 286.33 244.511 285.22 242.476 284.142 240.5 284.814 238.026 286.743 236.867L358.527 195.728C361.77 193.641 365.561 192.567 369.417 192.642 381.003 192.656 390.392 202.045 390.406 213.632 390.267 219.694 387.717 225.45 383.32 229.626L382.825 230.046 267.382 314.449C263.745 317.145 259.341 318.607 254.814 318.622L176.312 318.622C135.681 318.622 102.778 330.926 78.5262 355.186 77.7383 355.967 76.6724 356.405 75.5625 356.403Z" transform="matrix(1.00248 0 0 1 567 250)"/><path d="M253.974 67.1667C268.667 67.1667 281.26 82.6654 281.26 95.3557 281.26 125.438 239.701 165.734 218.292 183.289 196.882 165.755 155.323 125.484 155.323 95.3557 155.64 88.126 158.633 81.2725 163.719 76.125 168.536 70.695 175.357 67.4605 182.609 67.1667 193.276 67.1667 203.024 75.319 210.794 90.738L218.254 105.54C218.275 105.582 218.308 105.582 218.329 105.54L225.789 90.738C233.559 75.319 243.307 67.1667 253.974 67.1667M253.974 58.7708C241.8 58.7708 228.661 66.4362 218.329 86.8969 218.308 86.9347 218.275 86.9347 218.254 86.8969 207.927 66.4404 194.783 58.7708 182.609 58.7708 163.601 58.7708 146.927 77.4516 146.927 95.3557 146.927 139.434 218.292 194.007 218.292 194.007 218.292 194.007 289.656 139.434 289.656 95.3557 289.656 77.4558 272.982 58.7708 253.974 58.7708Z" transform="matrix(1.00248 0 0 1 567 250)"/></g></svg>