<svg width="405" height="405" xmlns="http://www.w3.org/2000/svg" xmlns:xlink="http://www.w3.org/1999/xlink" xml:space="preserve" overflow="hidden"><g transform="translate(-750 -251)"><path d="M986.25 476.091 986.25 417.029 871.867 476.34 859.392 305.844 817.795 305.844 804.844 483.031 804.844 601.156 1100.16 601.156 1100.16 417.029ZM851.545 314.281 853.089 335.375 824.098 335.375 825.642 314.281ZM823.478 343.812 853.71 343.812 863.586 478.812 813.602 478.812ZM869.391 487.119 977.812 430.909 977.812 489.971 1091.72 430.909 1091.72 592.719 813.281 592.719 813.281 487.25 864.202 487.25Z"/><path d="M834.375 567.406 901.875 567.406 901.875 525.219 834.375 525.219ZM893.438 558.969 872.344 558.969 872.344 533.656 893.438 533.656ZM842.812 533.656 863.906 533.656 863.906 558.969 842.812 558.969Z"/><path d="M918.75 567.406 986.25 567.406 986.25 525.219 918.75 525.219ZM977.812 558.969 956.719 558.969 956.719 533.656 977.812 533.656ZM927.188 533.656 948.281 533.656 948.281 558.969 927.188 558.969Z"/><path d="M1070.62 525.219 1003.12 525.219 1003.12 567.406 1070.62 567.406ZM1011.56 533.656 1032.66 533.656 1032.66 558.969 1011.56 558.969ZM1062.19 558.969 1041.09 558.969 1041.09 533.656 1062.19 533.656Z"/></g></svg>