<svg width="362" height="361" xmlns="http://www.w3.org/2000/svg" xmlns:xlink="http://www.w3.org/1999/xlink" xml:space="preserve" overflow="hidden"><g transform="translate(-138 -148)"><path d="M195.568 60.2607 180.526 37.6982 165.485 60.2607 180.526 82.8232ZM180.526 51.2545 186.543 60.2607 180.526 69.2857 174.51 60.2607Z" transform="matrix(1.00277 0 0 1 138 148)"/><path d="M180.526 94.1157 127.128 183.636 63.9534 154.305 86.5159 252.102 86.5159 323.396 274.537 323.396 274.537 252.095 297.099 154.297 233.924 183.629ZM267.02 315.875 94.0405 315.875 94.0405 285.792 267.02 285.792 267.02 315.875ZM286.318 167.602 267.215 250.406 267.02 251.241 267.02 278.271 94.0405 278.271 94.0405 251.241 93.8487 250.406 74.7345 167.602 123.958 190.458 130.11 193.316 133.585 187.491 180.526 108.796 227.468 187.491 230.942 193.316 237.094 190.458Z" transform="matrix(1.00277 0 0 1 138 148)"/><path d="M23.7094 114.05 28.974 140.373 55.2969 145.637 50.0323 119.314ZM35.3667 133.98 33.2985 123.627 43.6434 125.696 45.7116 136.048Z" transform="matrix(1.00277 0 0 1 138 148)"/><path d="M311.02 119.318 305.756 145.641 332.079 140.376 337.343 114.053ZM325.686 133.984 315.341 136.052 317.413 125.699 327.758 123.631Z" transform="matrix(1.00277 0 0 1 138 148)"/></g></svg>