<svg width="358" height="358" xmlns="http://www.w3.org/2000/svg" xmlns:xlink="http://www.w3.org/1999/xlink" xml:space="preserve" overflow="hidden"><g transform="translate(-534 -152)"><path d="M852.493 435.488 800.072 382.977C792.047 374.937 778.495 375.176 768.449 382.977L752.928 367.456C793.461 323.675 790.828 255.325 747.046 214.792 703.265 174.259 634.915 176.892 594.382 220.674 553.849 264.455 556.482 332.805 600.264 373.338 641.916 411.9 706.307 411.65 747.659 372.767L763.172 388.284C759.851 392.456 757.81 397.501 757.295 402.809 756.601 409.068 758.749 415.309 763.15 419.814L815.552 472.306C819.536 476.217 824.923 478.367 830.506 478.272 837.841 478.145 844.83 475.132 849.957 469.885 854.708 465.258 857.674 459.103 858.333 452.504 859.033 446.243 856.89 439.999 852.493 435.488ZM602.691 222.511C625.985 199.156 659.249 188.705 691.714 194.542 705.703 196.951 718.995 202.392 730.658 210.485 758.146 229.262 774.571 260.418 774.531 293.708L735.375 293.708C734.287 293.708 733.253 294.184 732.545 295.01L714.824 315.684C714.813 315.702 714.79 315.707 714.772 315.696 714.767 315.693 714.763 315.689 714.76 315.684L701.686 266.642C701.155 264.652 699.111 263.469 697.121 264 695.966 264.309 695.028 265.152 694.6 266.269L667.344 336.75C667.337 336.77 667.316 336.781 667.297 336.774 667.286 336.771 667.277 336.762 667.273 336.75L649.541 240.821C649.166 238.796 647.22 237.459 645.195 237.833 643.86 238.081 642.765 239.034 642.336 240.322L624.54 293.708 573.246 293.708C573.199 267.004 583.796 241.382 602.691 222.511ZM618.167 377.644C592.271 360.421 575.799 332.186 573.552 301.167L627.229 301.167C628.835 301.167 630.261 300.139 630.768 298.616L644.794 256.54C644.8 256.52 644.821 256.51 644.841 256.516 644.852 256.52 644.861 256.529 644.864 256.54L662.362 351.164C662.665 352.805 664.022 354.045 665.684 354.199 665.8 354.199 665.916 354.199 666.031 354.199 667.571 354.198 668.951 353.252 669.507 351.816L697.39 279.716C697.396 279.697 697.417 279.686 697.437 279.693 697.448 279.696 697.457 279.705 697.461 279.716L709.394 324.466C709.926 326.456 711.97 327.638 713.96 327.106 714.686 326.912 715.337 326.503 715.827 325.932L737.09 301.167 774.225 301.167C770.16 356.605 721.921 398.251 666.483 394.185 663.051 393.933 659.634 393.506 656.246 392.904 642.61 390.59 629.627 385.387 618.167 377.644ZM844.707 464.59C837.439 471.836 826.732 472.936 820.84 467.036L768.427 414.533C765.597 411.576 764.24 407.507 764.727 403.443 765.231 398.597 767.429 394.085 770.933 390.7 778.197 383.451 788.903 382.351 794.799 388.254L847.216 440.757C850.045 443.715 851.402 447.783 850.916 451.847 850.41 456.693 848.211 461.205 844.707 464.59Z"/></g></svg>