<svg width="297" height="297" xmlns="http://www.w3.org/2000/svg" xmlns:xlink="http://www.w3.org/1999/xlink" xml:space="preserve" overflow="hidden"><g transform="translate(-663 -201)"><path d="M873.632 302.317C877.256 305.942 883.133 305.942 886.757 302.318 886.758 302.318 886.758 302.318 886.759 302.317L899.885 289.19 836.445 225.75 823.318 238.877C819.695 242.501 819.695 248.376 823.318 252L751.125 324.193C747.501 320.57 741.626 320.57 738.002 324.193L724.875 337.32 788.315 400.76 801.442 387.634C805.067 384.009 805.068 378.133 801.443 374.508 801.443 374.507 801.443 374.507 801.442 374.507L828.788 347.164 912.133 430.51C916.845 435.222 924.484 435.223 929.197 430.512 929.197 430.511 929.198 430.51 929.199 430.51L929.635 430.074C934.347 425.362 934.348 417.723 929.637 413.01 929.636 413.01 929.635 413.009 929.635 413.008L846.286 329.663ZM827.693 243.251 836.445 234.499 891.133 289.19 882.384 297.94C881.177 299.148 879.218 299.15 878.009 297.942 878.008 297.941 878.007 297.94 878.006 297.94L873.632 293.565 873.632 293.565 829.88 249.813 829.88 249.813 827.693 247.626C826.485 246.418 826.485 244.459 827.693 243.251ZM797.065 383.259 788.315 392.008 733.624 337.32 742.376 328.568C743.584 327.36 745.543 327.36 746.751 328.568L751.125 332.942 751.125 332.942 792.693 374.507 792.693 374.507 797.068 378.891C798.271 380.098 798.271 382.052 797.068 383.259ZM797.065 370.132 755.503 328.568 827.693 256.378 827.693 256.378 869.257 297.94ZM925.26 417.386C927.557 419.681 927.558 423.403 925.263 425.699 925.262 425.7 925.261 425.701 925.26 425.702L924.827 426.135C922.532 428.431 918.81 428.431 916.514 426.135L833.156 342.787 841.912 334.031Z"/><path d="M699.816 473.25 799.434 473.25C806.095 473.241 811.491 467.845 811.5 461.184L811.5 460.566C811.491 453.905 806.095 448.509 799.434 448.5L792.938 448.5 792.938 433.031 706.312 433.031 706.312 448.5 699.816 448.5C693.156 448.509 687.758 453.905 687.75 460.566L687.75 461.184C687.758 467.845 693.156 473.241 699.816 473.25ZM712.5 439.219 786.75 439.219 786.75 448.5 712.5 448.5ZM693.938 460.566C693.938 457.319 696.569 454.688 699.816 454.688L799.434 454.688C802.681 454.688 805.312 457.319 805.312 460.566L805.312 461.184C805.312 464.431 802.681 467.062 799.434 467.062L699.816 467.062C696.569 467.062 693.938 464.431 693.938 461.184Z"/></g></svg>