<svg width="385" height="385" xmlns="http://www.w3.org/2000/svg" xmlns:xlink="http://www.w3.org/1999/xlink" xml:space="preserve" overflow="hidden"><g transform="translate(-80 -65)"><path d="M372.736 304.021 372.736 267.478C372.728 259.755 366.467 253.496 358.744 253.49L340.653 253.49 340.653 233.438 295.199 233.438 295.199 221.406 307.01 221.406C318.941 221.395 328.611 211.726 328.622 199.794L328.622 154.789C328.611 142.858 318.941 133.188 307.01 133.177L276.486 133.177 276.486 120.576C285.065 118.361 290.223 109.612 288.008 101.034 285.793 92.4554 277.044 87.2969 268.466 89.5118 259.887 91.7267 254.729 100.476 256.944 109.054 258.403 114.705 262.815 119.117 268.466 120.576L268.466 133.177 237.938 133.177C226.008 133.19 216.341 142.859 216.33 154.789L216.33 199.794C216.341 211.724 226.008 221.393 237.938 221.406L251.084 221.406 251.084 233.438 204.299 233.438 204.299 257.472 178.849 257.472C175.555 257.47 172.886 254.802 172.881 251.508L172.881 214.962C184.859 212.74 192.768 201.229 190.546 189.252 189.814 185.306 188.02 181.636 185.358 178.635L179.366 183.969C184.513 189.766 183.986 198.638 178.189 203.784 172.392 208.931 163.521 208.404 158.374 202.608 153.682 197.323 153.65 189.375 158.299 184.053L152.26 178.772C144.25 187.951 145.199 201.884 154.378 209.893 157.355 212.491 160.975 214.242 164.86 214.962L164.86 251.508C164.869 259.23 171.128 265.486 178.849 265.493L204.299 265.493 204.299 349.84C185.516 350.958 171.196 367.089 172.314 385.872 173.385 403.863 188.282 417.907 206.304 417.917L338.648 417.917C357.463 417.907 372.708 402.645 372.698 383.83 372.688 365.807 358.644 350.91 340.653 349.84L340.653 261.51 358.744 261.51C362.039 261.515 364.709 264.183 364.716 267.478L364.716 304.021C352.738 306.242 344.829 317.753 347.05 329.731 347.782 333.674 349.574 337.343 352.235 340.343L358.227 335.009C353.081 329.211 353.609 320.34 359.407 315.194 365.205 310.048 374.077 310.577 379.223 316.375 383.914 321.66 383.944 329.608 379.293 334.929L385.333 340.207C393.341 331.027 392.39 317.093 383.21 309.086 380.235 306.49 376.618 304.742 372.736 304.021ZM264.455 105.104C264.455 100.674 268.046 97.0833 272.476 97.0833 276.906 97.0833 280.497 100.674 280.497 105.104 280.497 109.534 276.906 113.125 272.476 113.125 268.046 113.127 264.453 109.538 264.451 105.108 264.451 105.107 264.451 105.105 264.451 105.104ZM212.32 301.895 245.105 301.895 258.171 274.123 270.447 321.157 287.014 287.069 297.441 311.813 305.526 303.548C306.596 302.566 307.974 301.986 309.424 301.907L332.62 301.907 332.62 349.74 212.308 349.74ZM237.938 213.385C230.437 213.374 224.36 207.295 224.351 199.794L224.351 154.789C224.36 147.288 230.437 141.209 237.938 141.198L307.01 141.198C314.512 141.209 320.59 147.287 320.601 154.789L320.601 199.794C320.59 207.296 314.512 213.374 307.01 213.385L237.938 213.385ZM259.105 221.406 287.178 221.406 287.178 233.438 259.105 233.438ZM251.084 241.458 332.632 241.458 332.632 293.874 309.436 293.874C305.997 293.945 302.701 295.262 300.16 297.58L287.527 267.638 272.725 298.117 260.34 250.682 240.016 293.874 212.32 293.874 212.32 241.458ZM364.716 383.828C364.698 398.217 353.037 409.878 338.648 409.896L206.304 409.896C191.907 409.896 180.236 398.225 180.236 383.828 180.236 369.431 191.907 357.76 206.304 357.76L338.648 357.76C353.037 357.778 364.698 369.439 364.716 383.828Z"/><path d="M309.769 177.292C309.769 167.768 302.048 160.047 292.524 160.047 283 160.047 275.279 167.768 275.279 177.292 275.279 186.816 283 194.536 292.524 194.536 302.048 194.536 309.769 186.816 309.769 177.292ZM292.524 189.323C285.879 189.323 280.493 183.937 280.493 177.292 280.493 170.647 285.879 165.26 292.524 165.26 299.169 165.26 304.555 170.647 304.555 177.292 304.555 183.937 299.169 189.323 292.524 189.323Z"/><path d="M298.54 177.292C298.54 180.614 295.846 183.307 292.524 183.307 289.202 183.307 286.508 180.614 286.508 177.292 286.508 173.969 289.202 171.276 292.524 171.276 295.846 171.276 298.54 173.969 298.54 177.292Z"/><path d="M252.42 160.047C242.896 160.047 235.175 167.768 235.175 177.292 235.175 186.816 242.896 194.536 252.42 194.536 261.944 194.536 269.665 186.816 269.665 177.292 269.665 167.768 261.944 160.047 252.42 160.047ZM252.42 189.323C245.775 189.323 240.389 183.937 240.389 177.292 240.389 170.647 245.775 165.26 252.42 165.26 259.065 165.26 264.451 170.647 264.451 177.292 264.451 183.937 259.065 189.323 252.42 189.323Z"/><path d="M258.435 177.292C258.435 180.614 255.742 183.307 252.42 183.307 249.098 183.307 246.404 180.614 246.404 177.292 246.404 173.969 249.098 171.276 252.42 171.276 255.742 171.276 258.435 173.969 258.435 177.292Z"/><path d="M280.497 383.828C280.497 388.258 276.906 391.849 272.476 391.849 268.046 391.849 264.455 388.258 264.455 383.828 264.455 379.398 268.046 375.807 272.476 375.807 276.906 375.807 280.497 379.398 280.497 383.828Z"/><path d="M222.346 383.828C222.346 388.258 218.755 391.849 214.325 391.849 209.895 391.849 206.304 388.258 206.304 383.828 206.304 379.398 209.895 375.807 214.325 375.807 218.755 375.807 222.346 379.398 222.346 383.828Z"/><path d="M338.648 383.828C338.648 388.258 335.057 391.849 330.627 391.849 326.197 391.849 322.606 388.258 322.606 383.828 322.606 379.398 326.197 375.807 330.627 375.807 335.057 375.807 338.648 379.398 338.648 383.828Z"/></g></svg>