<svg width="428" height="428" xmlns="http://www.w3.org/2000/svg" xmlns:xlink="http://www.w3.org/1999/xlink" xml:space="preserve" overflow="hidden"><g transform="translate(-312 -71)"><path d="M659.75 155.708C664.675 155.708 668.667 159.7 668.667 164.625L668.667 342.958C668.667 347.883 664.675 351.875 659.75 351.875L606.25 351.875 606.25 401.684 561.283 356.717 558.671 354.104 392.25 354.104C387.325 354.104 383.333 350.112 383.333 345.188L383.333 164.625C383.333 159.7 387.325 155.708 392.25 155.708L659.75 155.708M659.75 146.792 392.25 146.792C382.401 146.792 374.417 154.776 374.417 164.625L374.417 345.188C374.417 355.036 382.401 363.021 392.25 363.021L554.979 363.021 615.167 423.208 615.167 360.792 659.75 360.792C669.599 360.792 677.583 352.807 677.583 342.958L677.583 164.625C677.583 154.776 669.599 146.792 659.75 146.792Z"/><path d="M610.708 253.792C610.708 261.178 604.72 267.167 597.333 267.167 589.947 267.167 583.958 261.178 583.958 253.792 583.958 246.405 589.947 240.417 597.333 240.417 604.72 240.417 610.708 246.405 610.708 253.792Z"/><path d="M539.375 253.792C539.375 261.178 533.387 267.167 526 267.167 518.613 267.167 512.625 261.178 512.625 253.792 512.625 246.405 518.613 240.417 526 240.417 533.387 240.417 539.375 246.405 539.375 253.792Z"/><path d="M468.042 253.792C468.042 261.178 462.053 267.167 454.667 267.167 447.28 267.167 441.292 261.178 441.292 253.792 441.292 246.405 447.28 240.417 454.667 240.417 462.053 240.417 468.042 246.405 468.042 253.792Z"/></g></svg>