<svg width="283" height="283" xmlns="http://www.w3.org/2000/svg" xmlns:xlink="http://www.w3.org/1999/xlink" xml:space="preserve" overflow="hidden"><g transform="translate(-106 -77)"><path d="M120.74 274.51 120.74 286.302 126.635 286.302 126.635 274.51C126.626 259.784 129.324 245.181 134.595 231.43L152.017 238.897 154.34 233.478 136.829 225.976C142.499 213.133 150.357 201.373 160.053 191.22L174.678 205.845 178.846 201.676 164.204 187.046C174.371 177.367 186.141 169.526 198.989 163.872L206.474 181.339 211.892 179.016 204.44 161.623C213.226 158.257 222.377 155.937 231.705 154.71L232.239 148.699C168.646 156.485 120.826 210.443 120.74 274.51Z"/><path d="M263.988 148.858 264.462 154.86C273.392 156.121 282.15 158.386 290.572 161.611L283.114 179.004 288.532 181.327 296.026 163.84C308.875 169.499 320.645 177.346 330.811 187.031L316.178 201.664 320.346 205.833 334.982 191.196C344.672 201.355 352.524 213.119 358.188 225.964L340.684 233.467 343.007 238.885 360.435 231.415C365.697 245.173 368.385 259.781 368.365 274.51L368.365 286.302 374.26 286.302 374.26 274.51C374.173 210.915 327.034 157.201 263.988 148.858Z"/><path d="M251.061 138.797C250.94 137.27 249.669 136.09 248.137 136.082L248.122 136.082C246.591 136.076 245.31 137.243 245.174 138.768L232.99 276.521C232.385 284.489 238.297 291.464 246.256 292.171 246.551 292.189 246.863 292.198 247.167 292.198 254.858 292.211 261.279 286.335 261.945 278.673 261.948 278.502 261.96 278.332 261.983 278.163 262.075 277.49 262.056 276.807 261.924 276.141ZM256.12 277.576C256.085 277.839 256.068 278.104 256.067 278.369 255.578 283.101 251.44 286.603 246.692 286.302 241.984 285.838 238.509 281.698 238.868 276.981L247.927 174.688C247.927 174.672 247.941 174.659 247.957 174.659 247.973 174.659 247.986 174.672 247.986 174.688L256.067 276.869C256.08 277.027 256.106 277.183 256.143 277.337 256.14 277.414 256.129 277.494 256.12 277.576Z"/></g></svg>