<svg width="363" height="364" xmlns="http://www.w3.org/2000/svg" xmlns:xlink="http://www.w3.org/1999/xlink" xml:space="preserve" overflow="hidden"><g transform="translate(-607 -276)"><path d="M163.274 182.57 72.6908 206.77 48.4908 116.19 139.071 91.9902ZM39.2494 110.825 67.3441 216.019 172.538 187.924 144.444 82.73Z" transform="matrix(1 0 0 1.00275 607 276)"/><path d="M288.785 274.976 182.135 303.06 211.391 197.608ZM171.328 313.727 303.445 278.939 207.568 183.092Z" transform="matrix(1 0 0 1.00275 607 276)"/><path d="M263.969 56.7188C292.161 56.7188 315.016 79.5734 315.016 107.766 315.016 135.958 292.161 158.812 263.969 158.812 235.777 158.812 212.922 135.958 212.922 107.766 212.954 79.5862 235.79 56.7501 263.969 56.7188M263.969 49.1562C231.6 49.1562 205.36 75.3966 205.36 107.766 205.36 140.135 231.6 166.375 263.969 166.375 296.338 166.375 322.578 140.135 322.578 107.766 322.578 75.3966 296.338 49.1562 263.969 49.1562Z" transform="matrix(1 0 0 1.00275 607 276)"/></g></svg>