<svg width="398" height="398" xmlns="http://www.w3.org/2000/svg" xmlns:xlink="http://www.w3.org/1999/xlink" xml:space="preserve" overflow="hidden"><g transform="translate(-494 -67)"><path d="M622.521 212.017C620.231 212.017 618.375 213.873 618.375 216.163L618.334 423.542 597.646 423.542 597.646 307.458 589.354 307.458 589.354 423.542 568.625 423.542 568.625 216.163C568.625 213.873 566.769 212.017 564.479 212.017 562.189 212.017 560.333 213.873 560.333 216.163L560.333 431.833 626.625 431.833 626.667 216.163C626.667 213.873 624.811 212.017 622.521 212.017Z"/><path d="M593.5 158.208C609.528 158.208 622.521 145.215 622.521 129.188 622.521 113.16 609.528 100.167 593.5 100.167 577.472 100.167 564.479 113.16 564.479 129.188 564.497 145.208 577.48 158.19 593.5 158.208ZM593.5 108.458C604.948 108.458 614.229 117.739 614.229 129.188 614.229 140.636 604.948 149.917 593.5 149.917 582.052 149.917 572.771 140.636 572.771 129.188 572.785 117.745 582.057 108.472 593.5 108.458Z"/><path d="M651.819 201.362C651.484 198.731 650.688 196.18 649.469 193.825 648.599 192.211 647.561 190.693 646.372 189.298 632.594 174.826 613.514 166.594 593.533 166.5 585.633 166.478 577.785 167.782 570.317 170.36 558.933 174.156 548.674 180.727 540.466 189.48 539.342 190.827 538.357 192.284 537.527 193.829 536.309 196.185 535.516 198.736 535.181 201.366L523.158 283.483C522.056 288.715 523.296 294.168 526.553 298.408 529.658 301.778 534.11 303.578 538.684 303.312 540.974 303.312 542.83 301.456 542.83 299.167 542.83 296.877 540.974 295.021 538.684 295.021 536.524 295.225 534.383 294.475 532.822 292.969 531.199 290.522 530.676 287.507 531.379 284.656L543.381 202.569C543.584 200.891 544.075 199.262 544.832 197.751 545.356 196.775 545.97 195.849 546.665 194.986 558.892 182.163 575.815 174.872 593.533 174.792 600.526 174.776 607.47 175.94 614.076 178.233 624.006 181.528 632.97 187.224 640.17 194.816 640.932 195.729 641.6 196.717 642.164 197.764 642.924 199.275 643.416 200.906 643.619 202.585L655.617 284.64C656.328 287.502 655.806 290.53 654.178 292.989 652.614 294.489 650.473 295.231 648.316 295.021 646.026 295.021 644.17 296.877 644.17 299.167 644.17 301.456 646.026 303.312 648.316 303.312 652.885 303.576 657.331 301.78 660.435 298.416 663.698 294.163 664.938 288.695 663.826 283.45Z"/><path d="M693 91.875C690.71 91.875 688.854 93.7312 688.854 96.0208L688.854 435.979C688.854 438.269 690.71 440.125 693 440.125 695.29 440.125 697.146 438.269 697.146 435.979L697.146 96.0208C697.146 93.7312 695.29 91.875 693 91.875Z"/><path d="M792.587 158.523C808.702 158.523 821.765 145.46 821.765 129.345 821.765 113.23 808.702 100.167 792.587 100.167 776.472 100.167 763.409 113.23 763.409 129.345 763.427 145.452 776.48 158.505 792.587 158.523ZM792.587 108.458C804.122 108.458 813.474 117.81 813.474 129.345 813.474 140.88 804.122 150.232 792.587 150.232 781.052 150.232 771.7 140.88 771.7 129.345 771.714 117.815 781.057 108.472 792.587 108.458Z"/><path d="M825.75 257.145 825.75 216.163C825.75 213.873 823.894 212.017 821.604 212.017 819.314 212.017 817.458 213.873 817.458 216.163L817.458 257.708 836.881 328.188 748.289 328.188 767.555 258.819 767.708 216.163C767.708 213.873 765.852 212.017 763.562 212.017 761.272 212.017 759.416 213.873 759.416 216.163L759.416 257.145 737.385 336.479 759.416 336.479 759.416 431.833 825.712 431.833 825.733 336.479 847.793 336.479ZM767.708 336.479 788.437 336.479 788.437 423.542 767.708 423.542ZM817.421 423.542 796.733 423.542 796.733 336.479 817.462 336.479Z"/><path d="M862.697 283.5 850.732 201.682C850.396 199.059 849.603 196.515 848.39 194.165 847.521 192.553 846.482 191.038 845.293 189.646 837.159 181.017 827.013 174.538 815.762 170.791 800.76 165.647 784.472 165.647 769.47 170.791 758.126 174.572 747.902 181.119 739.724 189.841 738.598 191.185 737.615 192.641 736.788 194.186 735.58 196.529 734.792 199.066 734.458 201.682L722.469 283.533C721.146 293.13 724.819 300.228 732.298 302.521 734.472 303.24 736.817 302.06 737.537 299.886 738.255 297.713 737.076 295.367 734.902 294.649 734.843 294.629 734.784 294.611 734.724 294.594 731.279 293.537 729.919 290.195 730.677 284.698L742.646 202.884C742.847 201.211 743.338 199.587 744.097 198.083 744.612 197.107 745.221 196.185 745.917 195.33 753.142 187.675 762.153 181.932 772.144 178.618 778.733 176.353 785.653 175.202 792.62 175.215 799.589 175.185 806.513 176.343 813.092 178.639 822.987 181.921 831.92 187.593 839.099 195.152 839.86 196.057 840.525 197.039 841.081 198.083 841.837 199.586 842.326 201.209 842.528 202.88L854.489 284.656C855.268 290.29 853.833 293.653 850.235 294.648 848.028 295.257 846.732 297.539 847.341 299.747 847.836 301.543 849.47 302.788 851.334 302.79 851.708 302.789 852.08 302.739 852.44 302.641 860.222 300.497 864.061 293.362 862.697 283.5Z"/></g></svg>