<svg width="281" height="281" xmlns="http://www.w3.org/2000/svg" xmlns:xlink="http://www.w3.org/1999/xlink" xml:space="preserve" overflow="hidden"><g transform="translate(-303 -276)"><path d="M572.292 372.594 578.146 372.594 578.146 378.448 572.292 378.448Z"/><path d="M560.583 372.594 566.438 372.594 566.438 378.448 560.583 378.448Z"/><path d="M525.458 372.594 531.312 372.594 531.312 378.448 525.458 378.448Z"/><path d="M537.167 372.594 543.021 372.594 543.021 378.448 537.167 378.448Z"/><path d="M513.75 372.594 519.604 372.594 519.604 378.448 513.75 378.448Z"/><path d="M548.875 372.594 554.729 372.594 554.729 378.448 548.875 378.448Z"/><path d="M502.042 372.594 507.896 372.594 507.896 378.448 502.042 378.448Z"/><path d="M502.042 349.177 507.896 349.177 507.896 355.031 502.042 355.031Z"/><path d="M502.042 360.885 507.896 360.885 507.896 366.74 502.042 366.74Z"/><path d="M502.042 314.052 507.896 314.052 507.896 319.906 502.042 319.906Z"/><path d="M502.042 337.469 507.896 337.469 507.896 343.323 502.042 343.323Z"/><path d="M502.042 325.76 507.896 325.76 507.896 331.615 502.042 331.615Z"/><path d="M502.042 302.344 507.896 302.344 507.896 308.198 502.042 308.198Z"/><path d="M560.583 302.344 566.438 302.344 566.438 308.198 560.583 308.198Z"/><path d="M537.167 302.344 543.021 302.344 543.021 308.198 537.167 308.198Z"/><path d="M525.458 302.344 531.312 302.344 531.312 308.198 525.458 308.198Z"/><path d="M513.75 302.344 519.604 302.344 519.604 308.198 513.75 308.198Z"/><path d="M548.875 302.344 554.729 302.344 554.729 308.198 548.875 308.198Z"/><path d="M572.292 302.344 578.146 302.344 578.146 308.198 572.292 308.198Z"/><path d="M572.292 325.76 578.146 325.76 578.146 331.615 572.292 331.615Z"/><path d="M572.292 349.177 578.146 349.177 578.146 355.031 572.292 355.031Z"/><path d="M572.292 337.469 578.146 337.469 578.146 343.323 572.292 343.323Z"/><path d="M572.292 360.885 578.146 360.885 578.146 366.74 572.292 366.74Z"/><path d="M572.292 314.052 578.146 314.052 578.146 319.906 572.292 319.906Z"/><path d="M341.055 334.492 341.055 340.396 493.26 340.346 493.26 334.492 341.055 334.492Z"/><path d="M540.105 363.812 545.96 363.812 545.96 340.346 545.96 334.492 540.105 334.492 516.677 334.492 516.677 340.346 540.105 340.346 540.105 363.812Z"/><path d="M341.055 419.427 341.055 463.319 341.055 469.173 346.909 469.173 540.105 469.173 545.96 469.173 545.96 463.319 545.96 387.229 540.105 387.229 540.105 463.319 346.909 463.319 346.909 419.427 341.055 419.427Z"/><path d="M332.271 331.562C332.271 328.329 334.892 325.708 338.125 325.708L493.26 325.708 493.26 319.854 338.125 319.854C331.667 319.873 326.436 325.104 326.417 331.562L326.417 340.396 332.271 340.396Z"/><path d="M554.729 331.562 554.729 363.812 560.583 363.812 560.583 331.562C560.564 325.104 555.333 319.873 548.875 319.854L516.677 319.854 516.677 325.708 548.875 325.708C552.108 325.708 554.729 328.329 554.729 331.562Z"/><path d="M554.729 472.115C554.729 475.348 552.108 477.969 548.875 477.969L338.125 477.969C334.892 477.969 332.271 475.348 332.271 472.115L332.271 419.427 326.417 419.427 326.417 472.115C326.438 478.572 331.667 483.802 338.125 483.823L423.01 483.823 423.01 513.094 390.812 513.094 390.812 518.948 496.188 518.948 496.188 513.094 463.99 513.094 463.99 483.823 548.875 483.823C555.333 483.802 560.562 478.572 560.583 472.115L560.583 387.229 554.729 387.229ZM458.135 513.094 428.865 513.094 428.865 483.823 458.135 483.823Z"/><path d="M384.958 349.177 308.854 349.177 308.854 410.646 384.958 410.646ZM379.104 404.792 314.708 404.792 314.708 355.031 379.104 355.031Z"/><path d="M329.344 366.74 364.469 366.74 364.469 372.594 329.344 372.594Z"/><path d="M329.344 384.302 352.76 384.302 352.76 390.156 329.344 390.156Z"/><path d="M443.5 442.844C466.132 442.844 484.479 424.497 484.479 401.865 484.479 379.232 466.132 360.885 443.5 360.885 420.868 360.885 402.521 379.232 402.521 401.865 402.545 424.487 420.878 442.819 443.5 442.844ZM423.048 430.366C423.476 419.071 432.979 410.261 444.274 410.688 454.969 411.092 463.547 419.67 463.952 430.366 451.747 439.197 435.253 439.197 423.048 430.366ZM434.719 396.01C434.719 391.161 438.65 387.229 443.5 387.229 448.35 387.229 452.281 391.161 452.281 396.01 452.281 400.86 448.35 404.792 443.5 404.792 438.65 404.792 434.719 400.86 434.719 396.01ZM443.5 366.74C462.867 366.71 478.591 382.385 478.621 401.752 478.634 410.618 475.289 419.16 469.258 425.659 467.421 417.112 461.476 410.027 453.379 406.732 459.34 401.273 459.746 392.016 454.287 386.055 448.828 380.094 439.57 379.687 433.609 385.147 427.649 390.606 427.242 399.863 432.701 405.824 432.991 406.14 433.294 406.443 433.609 406.732 425.517 410.03 419.577 417.115 417.742 425.659 404.568 411.463 405.397 389.275 419.593 376.102 426.092 370.071 434.634 366.726 443.5 366.74Z"/><path d="M524.721 427.061C524.721 426.815 524.475 426.569 523.983 426.323L494.724 416.5 494.478 416.5C493.95 416.535 493.53 416.956 493.495 417.483L493.495 417.729 503.087 447.234C503.322 447.695 503.799 447.981 504.316 447.972 504.562 447.972 504.808 447.726 505.054 447.234L508.727 437.194C508.737 437.182 508.755 437.179 508.768 437.189 508.77 437.19 508.772 437.192 508.774 437.194L520.295 448.698 525.458 443.535 513.937 432.014C513.924 432.002 513.922 431.982 513.933 431.968 513.934 431.967 513.936 431.965 513.937 431.964L523.995 428.29C524.451 428.052 524.732 427.576 524.721 427.061Z"/></g></svg>