<svg width="1309" height="1309" xmlns="http://www.w3.org/2000/svg" xmlns:xlink="http://www.w3.org/1999/xlink" xml:space="preserve" overflow="hidden"><g transform="translate(-1069 -588)"><path d="M1273.53 928.886 1246.26 928.886 1246.26 1556.39 1273.53 1556.39 2023.48 1556.11 2200.74 1556.11 2200.74 1528.84 2200.74 956.156 2200.74 928.886 1273.53 928.886ZM2173.47 1528.84 2023.48 1528.84 1273.53 1529.12 1273.53 956.156 2173.47 956.156Z"/><path d="M2214.38 860.777 1232.63 860.777C1202.54 860.874 1178.18 885.236 1178.08 915.318L1178.08 1570.02C1178.17 1600.11 1202.54 1624.47 1232.63 1624.56L2214.38 1624.56C2244.46 1624.47 2268.83 1600.11 2268.92 1570.02L2268.92 915.346C2268.83 885.252 2244.47 860.874 2214.38 860.777ZM2241.65 1570.02C2241.65 1585.08 2229.44 1597.29 2214.38 1597.29L1232.63 1597.29C1217.56 1597.29 1205.35 1585.08 1205.35 1570.02L1205.35 915.346C1205.35 900.284 1217.56 888.075 1232.63 888.075L2214.38 888.075C2229.44 888.075 2241.65 900.284 2241.65 915.346Z"/><g><g><g><path d="M444.807 363.188 444.807 307.661C444.794 295.926 435.281 286.417 423.546 286.406L396.057 286.406 396.057 255.938 326.991 255.938 326.991 237.656 344.937 237.656C363.066 237.639 377.759 222.947 377.776 204.817L377.776 136.433C377.759 118.303 363.066 103.611 344.937 103.594L298.557 103.594 298.557 84.4472C311.592 81.0816 319.43 67.7869 316.065 54.7525 312.699 41.718 299.404 33.8797 286.37 37.2452 273.335 40.6107 265.497 53.9055 268.862 66.9398 271.079 75.5259 277.784 82.2303 286.37 84.4472L286.37 103.594 239.984 103.594C221.857 103.614 207.168 118.306 207.151 136.433L207.151 204.817C207.168 222.944 221.857 237.636 239.984 237.656L259.959 237.656 259.959 255.938 188.87 255.938 188.87 292.457 150.199 292.457C145.195 292.454 141.138 288.4 141.131 283.396L141.131 227.864C159.331 224.488 171.348 206.997 167.972 188.798 166.86 182.803 164.135 177.226 160.089 172.666L150.985 180.771C158.806 189.58 158.005 203.06 149.196 210.88 140.388 218.701 126.908 217.9 119.087 209.092 111.958 201.063 111.91 188.985 118.974 180.899L109.797 172.874C97.6274 186.821 99.0679 207.992 113.015 220.162 117.539 224.11 123.04 226.77 128.944 227.864L128.944 283.396C128.957 295.128 138.466 304.634 150.199 304.645L188.87 304.645 188.87 432.809C160.33 434.507 138.571 459.019 140.27 487.559 141.896 514.895 164.532 536.235 191.917 536.25L393.01 536.25C421.6 536.235 444.765 513.046 444.749 484.456 444.734 457.071 423.394 434.435 396.057 432.809L396.057 298.594 423.546 298.594C428.552 298.6 432.609 302.655 432.62 307.661L432.62 363.188C414.42 366.563 402.403 384.053 405.778 402.253 406.889 408.245 409.613 413.819 413.656 418.379L422.76 410.274C414.941 401.464 415.744 387.984 424.554 380.165 433.364 372.346 446.844 373.149 454.663 381.959 461.791 389.99 461.837 402.068 454.77 410.152L463.948 418.171C476.115 404.222 474.671 383.051 460.722 370.883 456.201 366.94 450.705 364.283 444.807 363.188ZM280.276 60.9375C280.276 54.2065 285.732 48.75 292.463 48.75 299.195 48.75 304.651 54.2065 304.651 60.9375 304.651 67.6687 299.195 73.125 292.463 73.125 285.732 73.1287 280.274 67.6748 280.27 60.9436 280.27 60.9418 280.27 60.9393 280.27 60.9375ZM201.057 359.958 250.874 359.958 270.727 317.759 289.38 389.226 314.553 337.429 330.397 375.028 342.682 362.468C344.308 360.977 346.402 360.096 348.605 359.976L383.851 359.976 383.851 432.656 201.039 432.656ZM239.984 225.469C228.586 225.452 219.352 216.215 219.338 204.817L219.338 136.433C219.352 125.035 228.586 115.798 239.984 115.781L344.937 115.781C356.336 115.798 365.571 125.034 365.588 136.433L365.588 204.817C365.571 216.216 356.336 225.452 344.937 225.469L239.984 225.469ZM272.147 237.656 314.803 237.656 314.803 255.938 272.147 255.938ZM259.959 268.125 383.87 268.125 383.87 347.77 348.623 347.77C343.398 347.878 338.39 349.879 334.529 353.401L315.333 307.905 292.841 354.218 274.024 282.141 243.141 347.77 201.057 347.77 201.057 268.125ZM432.62 484.453C432.593 506.318 414.875 524.036 393.01 524.063L191.917 524.063C170.041 524.063 152.307 506.329 152.307 484.453 152.307 462.577 170.041 444.844 191.917 444.844L393.01 444.844C414.875 444.871 432.593 462.589 432.62 484.453Z" transform="matrix(1.00171 0 0 1 1433 945)"/><path d="M349.129 170.625C349.129 156.154 337.398 144.422 322.926 144.422 308.455 144.422 296.723 156.154 296.723 170.625 296.723 185.096 308.455 196.828 322.926 196.828 337.398 196.828 349.129 185.096 349.129 170.625ZM322.926 188.906C312.829 188.906 304.645 180.722 304.645 170.625 304.645 160.528 312.829 152.344 322.926 152.344 333.023 152.344 341.207 160.528 341.207 170.625 341.207 180.722 333.023 188.906 322.926 188.906Z" transform="matrix(1.00171 0 0 1 1433 945)"/><path d="M332.067 170.625C332.067 175.673 327.974 179.766 322.926 179.766 317.878 179.766 313.785 175.673 313.785 170.625 313.785 165.577 317.878 161.484 322.926 161.484 327.974 161.484 332.067 165.577 332.067 170.625Z" transform="matrix(1.00171 0 0 1 1433 945)"/><path d="M261.989 144.422C247.517 144.422 235.785 156.154 235.785 170.625 235.785 185.096 247.517 196.828 261.989 196.828 276.46 196.828 288.192 185.096 288.192 170.625 288.192 156.154 276.46 144.422 261.989 144.422ZM261.989 188.906C251.892 188.906 243.707 180.722 243.707 170.625 243.707 160.528 251.892 152.344 261.989 152.344 272.085 152.344 280.27 160.528 280.27 170.625 280.27 180.722 272.085 188.906 261.989 188.906Z" transform="matrix(1.00171 0 0 1 1433 945)"/><path d="M271.129 170.625C271.129 175.673 267.037 179.766 261.989 179.766 256.94 179.766 252.848 175.673 252.848 170.625 252.848 165.577 256.94 161.484 261.989 161.484 267.037 161.484 271.129 165.577 271.129 170.625Z" transform="matrix(1.00171 0 0 1 1433 945)"/><path d="M304.651 484.453C304.651 491.184 299.194 496.641 292.463 496.641 285.732 496.641 280.276 491.184 280.276 484.453 280.276 477.722 285.732 472.266 292.463 472.266 299.194 472.266 304.651 477.722 304.651 484.453Z" transform="matrix(1.00171 0 0 1 1433 945)"/><path d="M216.292 484.453C216.292 491.184 210.835 496.641 204.104 496.641 197.373 496.641 191.917 491.184 191.917 484.453 191.917 477.722 197.373 472.266 204.104 472.266 210.835 472.266 216.292 477.722 216.292 484.453Z" transform="matrix(1.00171 0 0 1 1433 945)"/><path d="M393.01 484.453C393.01 491.184 387.554 496.641 380.823 496.641 374.092 496.641 368.635 491.184 368.635 484.453 368.635 477.722 374.092 472.266 380.823 472.266 387.554 472.266 393.01 477.722 393.01 484.453Z" transform="matrix(1.00171 0 0 1 1433 945)"/></g></g></g></g></svg>