<svg width="451" height="452" xmlns="http://www.w3.org/2000/svg" xmlns:xlink="http://www.w3.org/1999/xlink" xml:space="preserve" overflow="hidden"><g transform="translate(-711 -104)"><path d="M304.895 215.695C304.752 212.032 306.109 208.469 308.653 205.83 311.579 203.751 314.747 202.037 318.087 200.723 343.214 189.518 371.953 189.689 396.946 201.193 399.634 202.236 402.165 203.65 404.462 205.393 407.125 208.17 408.645 211.848 408.719 215.695L408.719 262.881C411.983 265.31 415.119 267.907 418.115 270.661L418.115 215.695C418.177 209.327 415.644 203.208 411.101 198.745 408.03 196.185 404.575 194.124 400.864 192.638 373.515 179.84 341.942 179.626 314.422 192.051 310.263 193.687 306.335 195.86 302.738 198.515 297.967 202.934 295.33 209.194 295.499 215.695L295.499 221.356C298.671 221.848 301.804 222.373 304.895 222.93Z" transform="matrix(1 0 0 1.00222 711 104)"/><path d="M356.826 178.103C374.988 178.103 389.711 163.379 389.711 145.217 389.711 127.055 374.988 112.332 356.826 112.332 338.663 112.332 323.94 127.055 323.94 145.217 323.831 163.27 338.377 177.993 356.43 178.103 356.562 178.104 356.694 178.104 356.826 178.103ZM356.826 121.728C369.791 121.746 380.297 132.252 380.315 145.217 380.315 158.19 369.798 168.707 356.826 168.707 343.853 168.707 333.336 158.19 333.336 145.217 333.336 132.244 343.853 121.728 356.826 121.728Z" transform="matrix(1 0 0 1.00222 711 104)"/><path d="M42.2812 215.695C42.3081 213.655 42.7342 211.639 43.5356 209.762 44.6271 207.157 46.5564 204.992 49.0181 203.608 50.9475 202.511 52.9488 201.546 55.0079 200.718 80.1361 189.516 108.874 189.687 133.867 201.188 136.556 202.231 139.087 203.644 141.384 205.388 144.046 208.167 145.564 211.847 145.635 215.695L145.635 223.01C148.733 222.452 151.865 221.925 155.031 221.427L155.031 215.695C154.945 209.359 152.437 203.296 148.022 198.75 144.968 196.162 141.505 194.098 137.776 192.643 110.427 179.845 78.8536 179.63 51.3341 192.056 47.285 193.653 43.4542 195.756 39.9323 198.313L39.19 199.008C34.9795 203.527 32.7151 209.521 32.8854 215.695L32.8854 270.661C35.8809 267.909 39.0171 265.313 42.2812 262.886Z" transform="matrix(1 0 0 1.00222 711 104)"/><path d="M225.5 159.302C243.662 159.302 258.385 144.578 258.385 126.416 258.385 108.254 243.662 93.5308 225.5 93.5308 207.338 93.5308 192.615 108.254 192.615 126.416 192.505 144.469 207.051 159.192 225.104 159.302 225.236 159.303 225.368 159.303 225.5 159.302ZM225.5 102.927C238.467 102.942 248.974 113.45 248.99 126.416 248.99 139.389 238.473 149.906 225.5 149.906 212.527 149.906 202.01 139.389 202.01 126.416 202.01 113.443 212.527 102.927 225.5 102.927Z" transform="matrix(1 0 0 1.00222 711 104)"/><path d="M93.9583 178.103C112.12 178.103 126.844 163.379 126.844 145.217 126.844 127.055 112.12 112.332 93.9583 112.332 75.7962 112.332 61.0729 127.055 61.0729 145.217 60.9635 163.27 75.5096 177.993 93.5623 178.103 93.6943 178.104 93.8263 178.104 93.9583 178.103ZM93.9583 121.728C106.924 121.746 117.43 132.252 117.448 145.217 117.448 158.19 106.931 168.707 93.9583 168.707 80.9855 168.707 70.4688 158.19 70.4688 145.217 70.4688 132.244 80.9855 121.728 93.9583 121.728Z" transform="matrix(1 0 0 1.00222 711 104)"/><path d="M173.353 196.899C173.212 193.236 174.569 189.674 177.111 187.033 180.036 184.953 183.204 183.238 186.545 181.927 211.674 170.719 240.415 170.89 265.409 182.397 268.099 183.435 270.629 184.848 272.925 186.592 275.587 189.372 277.105 193.051 277.177 196.899L277.177 218.923C280.34 219.274 283.472 219.656 286.573 220.069L286.573 196.899C286.495 190.556 283.99 184.483 279.573 179.93 276.522 177.34 273.061 175.276 269.332 173.823 241.984 161.024 210.409 160.81 182.89 173.236 178.728 174.873 174.797 177.046 171.197 179.7 166.422 184.125 163.784 190.392 163.957 196.899L163.957 220.13C167.061 219.714 170.193 219.327 173.353 218.97Z" transform="matrix(1 0 0 1.00222 711 104)"/><path d="M225.5 225.5C109.588 225.5 18.7917 265.738 18.7917 317.109 18.7917 368.481 109.588 408.719 225.5 408.719 341.412 408.719 432.208 368.481 432.208 317.109 432.208 265.738 341.412 225.5 225.5 225.5ZM225.5 399.323C118.543 399.323 28.1875 361.674 28.1875 317.109 28.1875 272.545 118.543 234.896 225.5 234.896 332.457 234.896 422.812 272.545 422.812 317.109 422.812 361.674 332.457 399.323 225.5 399.323Z" transform="matrix(1 0 0 1.00222 711 104)"/></g></svg>