<svg width="179" height="179" xmlns="http://www.w3.org/2000/svg" xmlns:xlink="http://www.w3.org/1999/xlink" xml:space="preserve" overflow="hidden"><g transform="translate(-92 -44)"><path d="M220.703 126.07 220.703 103.724C220.703 82.0724 203.15 64.5197 181.498 64.5197 159.846 64.5197 142.293 82.0724 142.293 103.724L142.293 126.068 129.286 127 129.286 197.871 181.494 201.6 233.703 197.871 233.703 126.996ZM146.023 103.724C146.023 84.1318 161.905 68.2489 181.498 68.2489 201.091 68.2489 216.974 84.1318 216.974 103.724L216.974 125.82 211.333 125.443 211.333 103.678C211.333 87.2013 197.977 73.8445 181.5 73.8445 165.023 73.8445 151.667 87.2013 151.667 103.678L151.667 125.443 146.026 125.816ZM207.604 125.182 181.5 123.267 155.396 125.182 155.396 103.678C155.396 89.2609 167.083 77.5737 181.5 77.5737 195.917 77.5737 207.604 89.2609 207.604 103.678ZM229.979 194.399 181.5 197.864 133.021 194.399 133.021 130.47 142.594 129.786 153.805 129.04 181.5 127.006 209.221 129.04 220.391 129.786 229.979 130.47Z"/><path d="M181.5 147.514C174.261 147.544 168.416 153.436 168.446 160.676 168.467 165.708 171.365 170.283 175.906 172.451L175.906 182.951 187.094 182.951 187.094 172.406C191.602 170.17 194.481 165.601 194.552 160.57 194.545 153.364 188.706 147.524 181.5 147.514ZM184.549 169.464 183.365 169.928 183.365 179.221 179.635 179.221 179.635 169.874 178.382 169.44C173.502 167.738 170.926 162.402 172.629 157.521 174.331 152.641 179.667 150.065 184.547 151.768 188.293 153.074 190.809 156.602 190.823 160.57 190.741 164.537 188.257 168.057 184.547 169.464Z"/></g></svg>