<svg width="413" height="413" xmlns="http://www.w3.org/2000/svg" xmlns:xlink="http://www.w3.org/1999/xlink" xml:space="preserve" overflow="hidden"><g transform="translate(-677 -86)"><path d="M810.365 365.635 956.635 365.635 956.635 219.365 810.365 219.365ZM818.969 227.969 948.031 227.969 948.031 357.031 818.969 357.031Z"/><path d="M1038.38 210.76 1038.38 202.156 999.656 202.156 999.656 197.854C999.642 185.98 990.02 176.358 978.146 176.344L973.844 176.344 973.844 137.625 965.24 137.625 965.24 176.344 939.427 176.344 939.427 137.625 930.823 137.625 930.823 176.344 905.01 176.344 905.01 137.625 896.406 137.625 896.406 176.344 870.594 176.344 870.594 137.625 861.99 137.625 861.99 176.344 836.177 176.344 836.177 137.625 827.573 137.625 827.573 176.344 801.76 176.344 801.76 137.625 793.156 137.625 793.156 176.344 788.854 176.344C776.98 176.358 767.358 185.98 767.344 197.854L767.344 202.156 728.625 202.156 728.625 210.76 767.344 210.76 767.344 236.573 728.625 236.573 728.625 245.177 767.344 245.177 767.344 270.99 728.625 270.99 728.625 279.594 767.344 279.594 767.344 305.406 728.625 305.406 728.625 314.01 767.344 314.01 767.344 339.823 728.625 339.823 728.625 348.427 767.344 348.427 767.344 374.24 728.625 374.24 728.625 382.844 767.344 382.844 767.344 387.146C767.358 399.02 776.98 408.642 788.854 408.656L793.156 408.656 793.156 447.375 801.76 447.375 801.76 408.656 827.573 408.656 827.573 447.375 836.177 447.375 836.177 408.656 861.99 408.656 861.99 447.375 870.594 447.375 870.594 408.656 896.406 408.656 896.406 447.375 905.01 447.375 905.01 408.656 930.823 408.656 930.823 447.375 939.427 447.375 939.427 408.656 965.24 408.656 965.24 447.375 973.844 447.375 973.844 408.656 978.146 408.656C990.02 408.642 999.642 399.02 999.656 387.146L999.656 382.844 1038.38 382.844 1038.38 374.24 999.656 374.24 999.656 348.427 1038.38 348.427 1038.38 339.823 999.656 339.823 999.656 314.01 1038.38 314.01 1038.38 305.406 999.656 305.406 999.656 279.594 1038.38 279.594 1038.38 270.99 999.656 270.99 999.656 245.177 1038.38 245.177 1038.38 236.573 999.656 236.573 999.656 210.76ZM991.052 387.146C991.052 394.274 985.274 400.052 978.146 400.052L788.854 400.052C781.726 400.052 775.948 394.274 775.948 387.146L775.948 197.854C775.948 190.726 781.726 184.948 788.854 184.948L978.146 184.948C985.274 184.948 991.052 190.726 991.052 197.854Z"/></g></svg>