<svg width="240" height="239" xmlns="http://www.w3.org/2000/svg" xmlns:xlink="http://www.w3.org/1999/xlink" xml:space="preserve" overflow="hidden"><g transform="translate(-361 -212)"><path d="M49.7952 179.051C52.3124 179.188 59.6566 179.25 59.6566 179.25L194.198 179.25C210.758 179.185 224.129 165.707 224.063 149.148 223.998 132.778 210.816 119.486 194.447 119.285L191.958 119.285C191.934 107.221 186.095 95.9087 176.273 88.903 166.323 81.9409 153.634 80.1813 142.164 84.1728 130.902 62.1537 103.922 53.4332 81.9033 64.6951 67.0036 72.3157 57.5968 87.6082 57.5141 104.343L57.5141 104.841C55.5608 104.522 53.585 104.361 51.6058 104.36 30.943 104.336 14.1732 121.067 14.1492 141.73 14.1428 147.226 15.3477 152.657 17.678 157.635 23.726 170.054 36.0056 178.242 49.7952 179.051ZM25.6405 122.279C31.852 114.211 41.4229 109.441 51.6043 109.339 53.3139 109.34 55.0205 109.479 56.708 109.754L62.4915 110.7 62.4915 104.342C62.6267 82.3572 80.5589 64.6445 102.544 64.7797 117.398 64.8711 130.965 73.2244 137.734 86.446L139.711 90.2972 143.799 88.8749C160.599 82.8688 179.086 91.6182 185.093 108.418 186.339 111.905 186.977 115.581 186.978 119.285L186.978 124.264 194.447 124.264C208.255 124.467 219.284 135.826 219.081 149.634 218.881 163.253 207.818 174.206 194.198 174.271L54.5025 174.271 50.0655 174.079C32.2179 173.309 18.3734 158.217 19.143 140.37 19.4253 133.82 21.691 127.511 25.6397 122.279Z" transform="matrix(1.00418 0 0 1 361 212)"/></g></svg>