<svg width="1565" height="1565" xmlns="http://www.w3.org/2000/svg" xmlns:xlink="http://www.w3.org/1999/xlink" xml:space="preserve" overflow="hidden"><g transform="translate(-1790 -97)"><path d="M3071.34 406.821C3084.38 407.309 3094.58 418.234 3094.17 431.274L3094.17 1104.75C3093.84 1117.21 3083.81 1127.24 3071.34 1127.57L2872.46 1127.57 2872.46 1305.26 2706.7 1135.77 2697.11 1125.99 2073.66 1125.99C2061.33 1126.26 2051.11 1116.48 2050.83 1104.15 2050.83 1103.82 2050.83 1103.49 2050.83 1103.16L2050.83 429.66C2051.16 417.192 2061.19 407.163 2073.66 406.837L3071.34 406.837M3071.34 374.233 2073.66 374.233C2043.18 374.551 2018.55 399.182 2018.23 429.66L2018.23 1103.12C2017.98 1133.47 2042.38 1158.29 2072.74 1158.54 2073.04 1158.54 2073.35 1158.54 2073.66 1158.54L2683.35 1158.54 2905.06 1385.14 2905.06 1160.17 3071.34 1160.17C3101.82 1159.85 3126.45 1135.22 3126.77 1104.75L3126.77 431.29C3127.15 400.256 3102.38 374.752 3071.34 374.233Z"/><g><g><g><path d="M241.542 506.458 506.458 506.458 506.458 241.542 241.542 241.542ZM257.125 257.125 490.875 257.125 490.875 490.875 257.125 490.875Z" transform="matrix(1.00134 0 0 1 2207 393)"/><path d="M654.5 225.958 654.5 210.375 584.375 210.375 584.375 202.583C584.349 181.078 566.922 163.651 545.417 163.625L537.625 163.625 537.625 93.5 522.042 93.5 522.042 163.625 475.292 163.625 475.292 93.5 459.708 93.5 459.708 163.625 412.958 163.625 412.958 93.5 397.375 93.5 397.375 163.625 350.625 163.625 350.625 93.5 335.042 93.5 335.042 163.625 288.292 163.625 288.292 93.5 272.708 93.5 272.708 163.625 225.958 163.625 225.958 93.5 210.375 93.5 210.375 163.625 202.583 163.625C181.078 163.651 163.651 181.078 163.625 202.583L163.625 210.375 93.5 210.375 93.5 225.958 163.625 225.958 163.625 272.708 93.5 272.708 93.5 288.292 163.625 288.292 163.625 335.042 93.5 335.042 93.5 350.625 163.625 350.625 163.625 397.375 93.5 397.375 93.5 412.958 163.625 412.958 163.625 459.708 93.5 459.708 93.5 475.292 163.625 475.292 163.625 522.042 93.5 522.042 93.5 537.625 163.625 537.625 163.625 545.417C163.651 566.922 181.078 584.349 202.583 584.375L210.375 584.375 210.375 654.5 225.958 654.5 225.958 584.375 272.708 584.375 272.708 654.5 288.292 654.5 288.292 584.375 335.042 584.375 335.042 654.5 350.625 654.5 350.625 584.375 397.375 584.375 397.375 654.5 412.958 654.5 412.958 584.375 459.708 584.375 459.708 654.5 475.292 654.5 475.292 584.375 522.042 584.375 522.042 654.5 537.625 654.5 537.625 584.375 545.417 584.375C566.922 584.349 584.349 566.922 584.375 545.417L584.375 537.625 654.5 537.625 654.5 522.042 584.375 522.042 584.375 475.292 654.5 475.292 654.5 459.708 584.375 459.708 584.375 412.958 654.5 412.958 654.5 397.375 584.375 397.375 584.375 350.625 654.5 350.625 654.5 335.042 584.375 335.042 584.375 288.292 654.5 288.292 654.5 272.708 584.375 272.708 584.375 225.958ZM568.792 545.417C568.792 558.327 558.327 568.792 545.417 568.792L202.583 568.792C189.673 568.792 179.208 558.327 179.208 545.417L179.208 202.583C179.208 189.673 189.673 179.208 202.583 179.208L545.417 179.208C558.327 179.208 568.792 189.673 568.792 202.583Z" transform="matrix(1.00134 0 0 1 2207 393)"/></g></g></g></g></svg>