<svg width="939" height="1030" xmlns="http://www.w3.org/2000/svg" xmlns:xlink="http://www.w3.org/1999/xlink" xml:space="preserve" overflow="hidden"><g transform="translate(-2731 -323)"><g><g><g><path d="M3567.3 725.988C3571.14 714.644 3573.13 702.752 3573.17 690.775 3572.87 635.421 3533.59 587.953 3479.27 577.313 3463.03 529.651 3418.11 497.733 3367.76 498.084 3358.55 498.093 3349.37 499.076 3340.37 501.019 3319.51 476.828 3290.03 461.736 3258.21 458.959 3255.71 458.809 3253.22 458.734 3250.74 458.733 3221.32 458.574 3192.91 469.478 3171.16 489.281 3151.1 475.68 3127.43 468.387 3103.19 468.341 3053.77 468.348 3009.7 499.45 2993.14 546.013L2986.29 546.013C2922.07 545.626 2869.61 597.213 2868.92 661.431L2868.92 667.3C2829.84 688.939 2806.93 731.33 2810.23 775.872 2814.14 837.494 2868.92 883.466 2931.52 883.466L3083.12 883.466C3147.73 883.463 3200.4 935.265 3201.48 999.862L3201.48 1125.06 3221.04 1124.9 3221.04 999.566C3219.54 924.396 3158.31 864.169 3083.12 863.903L2931.52 863.903C2877.63 863.903 2832.93 824.69 2829.75 774.6 2826.86 737.617 2845.86 702.361 2878.34 684.442L2888.48 678.866 2888.48 667.3 2888.48 661.725C2888.94 608.164 2932.73 565.116 2986.29 565.575L3006.87 565.575 3011.54 552.656C3025.3 513.846 3062.02 487.91 3103.19 487.904 3123.52 487.91 3143.38 494.033 3160.18 505.478L3172.98 514.146 3184.37 503.704C3202.53 487.212 3226.21 478.143 3250.74 478.295 3252.72 478.295 3254.71 478.353 3256.71 478.467 3283.29 480.823 3307.92 493.422 3325.39 513.601L3333.03 522.69 3344.61 520.116C3352.22 518.488 3359.98 517.662 3367.76 517.647 3409.79 517.255 3447.31 543.91 3460.78 583.725L3464.45 594.302 3475.43 596.497C3520.57 605.369 3553.24 644.771 3553.6 690.775 3553.55 700.648 3551.91 710.449 3548.74 719.799L3545.37 729.9 3552.02 738.214C3577.89 770.815 3579.54 816.456 3556.09 850.839L3552.77 855.649 3552.63 861.492 3552.61 863.117C3552.65 865.684 3552.46 868.251 3552.04 870.784 3538.82 935.998 3474.92 965.81 3458.93 970.118L3458.16 970.287C3429.08 976.472 3381.42 1002.47 3376.07 1105.5L3375.24 1125.06 3395.15 1125.06C3395.15 997.906 3455.79 991.059 3463.62 989.103 3489.05 982.256 3556.54 947.044 3571.21 874.662 3571.94 870.464 3572.27 866.207 3572.19 861.947 3600.56 820.463 3598.58 765.326 3567.3 725.988Z"/><path d="M3444.17 769.941C3457.58 761.424 3469.65 750.976 3480.01 738.934 3497.27 715.828 3502.22 675.776 3502.43 674.084 3503.07 668.72 3499.25 663.851 3493.88 663.208 3488.52 662.565 3483.65 666.391 3483 671.755 3482.96 672.121 3478.45 708.337 3464.34 727.227 3458.43 734.37 3451.62 740.713 3444.07 746.099 3441.81 714.468 3427.33 684.958 3403.71 663.798 3390.94 653.531 3377.03 644.762 3362.26 637.663 3364.65 628.974 3368.73 620.837 3374.25 613.711 3382.37 605.067 3392.63 598.726 3404 595.331 3409.23 593.995 3412.4 588.668 3411.06 583.434 3409.72 578.2 3404.39 575.039 3399.16 576.376 3399.11 576.389 3399.06 576.403 3399 576.418 3383.76 580.841 3370.03 589.371 3359.31 601.074 3352.41 609.763 3347.24 619.69 3344.06 630.32 3337.48 628.037 3330.82 625.886 3324.26 623.864 3305.43 619.175 3287.45 611.586 3270.96 601.368 3257.51 591.309 3249.25 575.774 3248.42 558.997 3248.62 552.132 3248.67 545.61 3248.67 545.61 3248.72 540.207 3244.38 535.789 3238.98 535.741 3233.57 535.693 3229.16 540.033 3229.11 545.435 3229.11 545.435 3229.05 551.778 3228.87 558.46 3229.54 581.763 3240.89 603.465 3259.64 617.318 3263.85 620.286 3268.26 622.969 3272.84 625.346 3259.21 628.941 3242.5 633.204 3230.73 635.725 3192.62 644.164 3153.03 643.154 3115.4 632.781 3088.77 623.27 3066.44 604.521 3052.46 579.942 3049.94 575.164 3044.02 573.334 3039.24 575.854 3034.55 578.332 3032.69 584.104 3035.05 588.858 3051.32 618.184 3077.84 640.471 3109.53 651.446 3110.53 651.759 3111.53 651.935 3112.52 652.234 3101.34 663.288 3088.99 673.095 3075.69 681.483 3043.97 697.357 3008.03 702.735 2973.05 696.839 2958.74 693.405 2945.4 686.731 2934.08 677.334 2930.01 673.776 2923.83 674.189 2920.27 678.254 2916.74 682.292 2917.12 688.422 2921.12 691.994 2935.03 703.691 2951.51 711.925 2969.21 716.019 2979.06 717.913 2989.07 718.854 2999.11 718.831 2987.76 725.777 2977.36 734.161 2968.16 743.773 2948.84 765.298 2937.46 792.784 2935.92 821.667 2935.96 827.039 2940.33 831.37 2945.7 831.362L2945.73 831.362C2951.12 831.338 2955.48 826.963 2955.48 821.572 2957.18 797.485 2966.82 774.643 2982.9 756.624 3000.27 736.719 3049.02 712.977 3051.22 711.909 3063.03 708.838 3074.43 704.37 3085.18 698.6 3103.34 686.847 3120.1 673.057 3135.13 657.5L3135.17 657.436C3148.71 659.781 3162.44 660.973 3176.19 660.996 3193.63 660.968 3211.04 659.352 3228.19 656.17 3216.89 673.887 3210.38 694.238 3209.3 715.228 3209.41 730.719 3211.88 746.101 3216.63 760.846 3203.61 758.886 3190.71 756.213 3177.99 752.839 3168.19 749.527 3158.79 745.129 3149.98 739.726 3145.41 736.836 3139.37 738.193 3136.48 742.758 3133.59 747.323 3134.95 753.366 3139.51 756.257 3149.77 762.579 3160.72 767.699 3172.15 771.515 3189.64 775.995 3207.36 779.502 3225.24 782.017 3227.46 786.533 3230.02 790.875 3232.89 795.008 3238.92 803.545 3245.79 811.454 3253.4 818.616 3257.42 822.222 3263.61 821.883 3267.21 817.858 3270.82 813.833 3270.48 807.648 3266.46 804.042 3259.92 797.829 3254.01 790.992 3248.81 783.629 3235.85 763.163 3228.94 739.452 3228.87 715.228 3228.87 683.401 3255.79 650.325 3256.19 649.831 3277.58 644.505 3300.37 638.203 3301.66 637.845 3301.94 637.766 3302.14 637.566 3302.41 637.467 3307.77 639.249 3313.17 640.918 3318.51 642.561 3328.13 645.52 3337.22 648.317 3345.84 651.705 3361.91 658.587 3376.99 667.562 3390.7 678.398 3412.13 697.532 3424.56 724.77 3424.98 753.498 3425.15 764.705 3424.27 775.903 3422.33 786.942 3408.13 782.12 3393.59 778.365 3378.83 775.708 3365.57 774.717 3352.25 774.696 3338.99 775.647 3333.6 776.008 3329.52 780.671 3329.88 786.061 3330.24 791.451 3334.9 795.528 3340.29 795.166 3352.26 794.279 3364.28 794.259 3376.26 795.105 3390.32 797.735 3404.18 801.382 3417.71 806.018 3412.48 821.975 3404.18 836.757 3393.29 849.537 3383.58 859.412 3372.76 868.133 3361.05 875.528 3333.76 894.63 3302.83 916.277 3293.28 951.314 3290.33 967.67 3288.63 984.227 3288.19 1000.84 3288.19 1007.69 3288.08 1101.91 3288.05 1125.06L3307.61 1125.06C3307.64 1101.86 3307.76 1007.68 3307.76 1000.84 3308.19 985.963 3309.66 971.135 3312.16 956.462 3319.85 928.248 3347.7 908.755 3372.27 891.555 3384.63 883.593 3396.11 874.337 3406.51 863.944 3413.89 872.749 3421.91 880.988 3430.52 888.593 3441.5 897.574 3457.23 908.237 3457.89 908.686 3462.37 911.701 3468.45 910.513 3471.47 906.031 3474.47 901.566 3473.3 895.513 3468.86 892.485 3468.7 892.38 3453.2 881.863 3442.91 873.453 3434.24 865.603 3426.15 857.128 3418.71 848.095 3434.15 824.854 3442.94 797.837 3444.13 769.962Z"/></g></g></g><rect x="2780.5" y="408.5" width="857" height="908" stroke="#042433" stroke-width="6.875" stroke-miterlimit="8" fill="none"/><text font-family="Aptos,Aptos_MSFontService,sans-serif" font-weight="400" font-size="92" transform="matrix(1 0 0 1 3139.96 1273)">LLM</text></g></svg>