<svg width="864" height="948" xmlns="http://www.w3.org/2000/svg" xmlns:xlink="http://www.w3.org/1999/xlink" xml:space="preserve" overflow="hidden"><g transform="translate(-2777 -405)"><rect x="2780.5" y="408.5" width="857" height="908" stroke="#042433" stroke-width="6.875" stroke-miterlimit="8" fill="none"/><text font-family="Aptos,Aptos_MSFontService,sans-serif" font-weight="400" font-size="92" transform="matrix(1 0 0 1 3139.96 1273)">LLM</text><g><g><g><path d="M583.583 300.886C589.138 291.226 593.604 280.98 596.9 270.336L631.366 253.103 631.366 213.936 596.9 196.703C594.019 186.035 589.808 175.771 584.367 166.153L596.9 129.336 568.7 101.136 531.883 113.669C522.27 108.197 512.006 103.958 501.333 101.05L484.1 66.5833 444.933 66.5833 427.7 101.05C417.031 103.929 406.767 108.139 397.15 113.583L360.333 101.05 332.133 129.25 344.667 166.067C339.225 175.684 335.014 185.948 332.133 196.617L297.667 213.85 297.667 253.017 332.133 270.25C335.015 280.918 339.226 291.181 344.667 300.8L332.133 337.617 359.55 365.033 396.367 352.5C405.984 357.942 416.248 362.152 426.917 365.033L444.15 399.5 483.317 399.5 500.55 365.033C511.218 362.153 521.482 357.943 531.1 352.5L567.917 365.033 596.116 337.617ZM568.747 305.931 578.1 333.387 563.882 347.212 536.152 337.765 529.384 335.462 523.204 339.066C514.721 343.86 505.663 347.558 496.249 350.072L489.622 351.967 486.536 358.132 473.635 383.982 453.855 383.982 440.954 358.132 437.868 351.967 431.241 350.072C421.824 347.558 412.764 343.86 404.278 339.066L398.106 335.462 391.338 337.765 363.749 347.165 350.119 333.535 359.519 305.939 361.822 299.171 358.218 292.998C353.435 284.509 349.75 275.446 347.252 266.028L345.356 259.401 339.199 256.322 313.333 243.405 313.333 223.595 339.183 210.717 345.34 207.63 347.236 201.003C349.736 191.588 353.42 182.528 358.203 174.041L361.806 167.86 359.503 161.1 350.103 133.496 364.516 119.082 392.105 128.482 398.873 130.832 405.046 127.221C413.533 122.44 422.593 118.756 432.008 116.254L438.667 114.249 441.753 108.084 454.654 82.2343 474.457 82.2343 487.359 108.084 490.445 114.249 497.064 116.145C506.48 118.644 515.539 122.329 524.026 127.111L530.207 130.723 536.975 128.373 564.556 118.973 578.969 133.386 569.569 160.991 567.266 167.751 570.87 173.931C575.662 182.418 579.36 191.478 581.875 200.894L583.763 207.521 589.928 210.607 615.778 223.516 615.778 243.327 589.928 256.236 583.936 259.236 581.962 265.644C579.016 275.161 575.032 284.323 570.078 292.967L566.475 299.139Z" transform="matrix(1 0 0 1 2852 452)"/><path d="M120.633 498.341 120.633 537.508 155.1 554.741C157.981 565.409 162.191 575.673 167.633 585.291L155.883 622.107 183.3 649.524 220.117 637.774C229.734 643.218 239.998 647.428 250.667 650.307L267.9 684.774 307.067 684.774 324.3 650.307C334.968 647.427 345.232 643.216 354.85 637.774L391.667 650.307 419.083 622.107 407.333 586.074C412.775 576.456 416.985 566.192 419.867 555.524L454.333 538.291 454.333 499.124 419.867 481.891C416.985 471.223 412.775 460.959 407.333 451.341L419.867 414.524 391.667 386.324 354.85 398.858C345.168 393.55 334.92 389.346 324.3 386.324L307.067 351.858 267.9 351.858 250.667 386.324C239.998 389.204 229.734 393.414 220.117 398.858L183.3 386.324 155.883 413.741 167.633 450.558C162.326 460.24 158.122 470.487 155.1 481.108ZM168.103 492.074 170.077 485.667C172.773 476.202 176.492 467.058 181.169 458.399L184.679 452.375 182.556 445.74 173.712 418.002 187.483 404.223 215.072 413.623 221.84 415.934 228.013 412.331C236.497 407.534 245.557 403.835 254.975 401.325L261.633 399.5 264.72 393.335 277.621 367.485 297.424 367.485 310.325 393.335 313.325 399.335 319.733 401.302C329.195 404.003 338.335 407.726 346.993 412.401L353.174 416.005 359.942 413.694 387.523 404.294 401.936 418.715 392.536 446.312 390.233 453.072 393.836 459.253C398.63 467.742 402.328 476.803 404.842 486.223L406.73 492.842 412.895 495.928 438.667 508.806 438.667 528.617 412.817 541.526 406.652 544.612 404.764 551.232C402.25 560.65 398.552 569.713 393.758 578.202L390.217 584.272 392.395 590.954 401.215 618.003 387.358 632.322 359.942 622.977 353.174 620.674 346.993 624.277C338.503 629.078 329.434 632.776 320.007 635.283L313.38 637.179 310.302 643.344 297.4 669.194 277.598 669.194 264.696 643.344 261.61 637.179 254.983 635.283C245.565 632.773 236.505 629.074 228.02 624.277L222.004 620.768 215.362 622.883 187.64 631.735 173.72 617.815 182.564 590.077 184.686 583.442 181.177 577.418C176.381 568.933 172.683 559.873 170.171 550.456L168.276 543.829 162.119 540.743 136.269 527.833 136.269 508.023 162.119 495.114Z" transform="matrix(1 0 0 1 2852 452)"/><path d="M464.517 174.73C432.07 174.73 405.767 201.034 405.767 233.48 405.767 265.927 432.07 292.23 464.517 292.23 496.963 292.23 523.267 265.927 523.267 233.48 523.024 201.135 496.862 174.973 464.517 174.73ZM464.517 276.564C440.737 276.529 421.468 257.26 421.433 233.48 421.75 209.818 440.854 190.713 464.517 190.397 488.296 190.431 507.565 209.701 507.6 233.48 507.305 257.156 488.192 276.282 464.517 276.595Z" transform="matrix(1 0 0 1 2852 452)"/><path d="M287.483 577.481C319.93 577.481 346.233 551.177 346.233 518.731 346.233 486.285 319.93 459.981 287.483 459.981 255.037 459.981 228.733 486.285 228.733 518.731 228.694 551.139 254.934 577.442 287.342 577.481 287.389 577.481 287.436 577.481 287.483 577.481ZM287.483 475.609C311.278 475.609 330.567 494.897 330.567 518.692 330.567 542.486 311.278 561.775 287.483 561.775 263.689 561.775 244.4 542.486 244.4 518.692 244.434 494.912 263.704 475.643 287.483 475.609Z" transform="matrix(1 0 0 1 2852 452)"/></g></g></g></g></svg>