<svg width="371" height="371" xmlns="http://www.w3.org/2000/svg" xmlns:xlink="http://www.w3.org/1999/xlink" xml:space="preserve" overflow="hidden"><g transform="translate(-54 -240)"><path d="M378.625 537.573 270.417 537.573 270.417 522.115 243.365 522.115 243.365 487.333 347.708 487.333C356.246 487.333 363.167 480.412 363.167 471.875L363.167 433.229C363.152 428.773 361.203 424.542 357.826 421.635 361.203 418.728 363.152 414.498 363.167 410.042L363.167 371.396C363.152 366.94 361.203 362.709 357.826 359.802 361.203 356.895 363.152 352.665 363.167 348.208L363.167 309.562C363.167 301.025 356.246 294.104 347.708 294.104L131.292 294.104C122.754 294.104 115.833 301.025 115.833 309.562L115.833 348.208C115.848 352.665 117.797 356.895 121.174 359.802 117.797 362.709 115.848 366.94 115.833 371.396L115.833 410.042C115.848 414.498 117.797 418.728 121.174 421.635 117.797 424.542 115.848 428.773 115.833 433.229L115.833 471.875C115.833 480.412 122.754 487.333 131.292 487.333L235.635 487.333 235.635 522.115 208.583 522.115 208.583 537.573 100.375 537.573 100.375 545.302 208.583 545.302 208.583 560.76 270.417 560.76 270.417 545.302 378.625 545.302ZM123.562 348.208 123.562 309.562C123.562 305.294 127.023 301.833 131.292 301.833L347.708 301.833C351.977 301.833 355.438 305.294 355.438 309.562L355.438 348.208C355.438 352.477 351.977 355.938 347.708 355.938L131.292 355.938C127.023 355.938 123.562 352.477 123.562 348.208ZM123.562 410.042 123.562 371.396C123.562 367.127 127.023 363.667 131.292 363.667L347.708 363.667C351.977 363.667 355.438 367.127 355.438 371.396L355.438 410.042C355.438 414.31 351.977 417.771 347.708 417.771L131.292 417.771C127.023 417.771 123.562 414.31 123.562 410.042ZM123.562 471.875 123.562 433.229C123.562 428.96 127.023 425.5 131.292 425.5L347.708 425.5C351.977 425.5 355.438 428.96 355.438 433.229L355.438 471.875C355.438 476.144 351.977 479.604 347.708 479.604L131.292 479.604C127.023 479.604 123.562 476.144 123.562 471.875ZM262.688 553.031 216.312 553.031 216.312 529.844 262.688 529.844Z"/><path d="M162.208 328.885C162.208 333.154 158.748 336.615 154.479 336.615 150.21 336.615 146.75 333.154 146.75 328.885 146.75 324.617 150.21 321.156 154.479 321.156 158.748 321.156 162.208 324.617 162.208 328.885Z"/><path d="M200.854 328.885C200.854 333.154 197.394 336.615 193.125 336.615 188.856 336.615 185.396 333.154 185.396 328.885 185.396 324.617 188.856 321.156 193.125 321.156 197.394 321.156 200.854 324.617 200.854 328.885Z"/><path d="M239.5 328.885C239.5 333.154 236.04 336.615 231.771 336.615 227.502 336.615 224.042 333.154 224.042 328.885 224.042 324.617 227.502 321.156 231.771 321.156 236.04 321.156 239.5 324.617 239.5 328.885Z"/><path d="M162.208 390.719C162.208 394.987 158.748 398.448 154.479 398.448 150.21 398.448 146.75 394.987 146.75 390.719 146.75 386.45 150.21 382.99 154.479 382.99 158.748 382.99 162.208 386.45 162.208 390.719Z"/><path d="M200.854 390.719C200.854 394.987 197.394 398.448 193.125 398.448 188.856 398.448 185.396 394.987 185.396 390.719 185.396 386.45 188.856 382.99 193.125 382.99 197.394 382.99 200.854 386.45 200.854 390.719Z"/><path d="M239.5 390.719C239.5 394.987 236.04 398.448 231.771 398.448 227.502 398.448 224.042 394.987 224.042 390.719 224.042 386.45 227.502 382.99 231.771 382.99 236.04 382.99 239.5 386.45 239.5 390.719Z"/><path d="M162.208 452.552C162.208 456.821 158.748 460.281 154.479 460.281 150.21 460.281 146.75 456.821 146.75 452.552 146.75 448.283 150.21 444.823 154.479 444.823 158.748 444.823 162.208 448.283 162.208 452.552Z"/><path d="M200.854 452.552C200.854 456.821 197.394 460.281 193.125 460.281 188.856 460.281 185.396 456.821 185.396 452.552 185.396 448.283 188.856 444.823 193.125 444.823 197.394 444.823 200.854 448.283 200.854 452.552Z"/><path d="M239.5 452.552C239.5 456.821 236.04 460.281 231.771 460.281 227.502 460.281 224.042 456.821 224.042 452.552 224.042 448.283 227.502 444.823 231.771 444.823 236.04 444.823 239.5 448.283 239.5 452.552Z"/></g></svg>