<svg width="403" height="403" xmlns="http://www.w3.org/2000/svg" xmlns:xlink="http://www.w3.org/1999/xlink" xml:space="preserve" overflow="hidden"><g transform="translate(-204 -250)"><path d="M367.719 470.189 389.968 490.876 421.213 460.5 440.763 441.005 463.066 460.685 538.708 385.013C538.725 384.997 538.752 384.997 538.767 385.014 538.775 385.022 538.78 385.032 538.78 385.043L538.78 420.994 547.175 420.994 547.175 370.619 496.914 370.619 496.914 379.015 532.726 379.015C532.749 379.012 532.77 379.03 532.772 379.053 532.773 379.065 532.769 379.077 532.76 379.086L462.697 449.153 440.393 429.474 415.344 454.522 389.867 479.29 367.526 458.527 301.963 524.095 307.898 530.03Z"/><path d="M271.343 585.833 271.343 308.771 262.947 308.771 262.947 594.229 548.28 594.229 548.28 585.833 271.343 585.833Z"/></g></svg>