<svg width="130" height="130" xmlns="http://www.w3.org/2000/svg" xmlns:xlink="http://www.w3.org/1999/xlink" xml:space="preserve" overflow="hidden"><g transform="translate(-384 -449)"><path d="M449 465.25C475.924 465.25 497.75 487.076 497.75 514 497.75 540.924 475.924 562.75 449 562.75 422.076 562.75 400.25 540.924 400.25 514 400.281 487.089 422.089 465.281 449 465.25M449 462.542C420.58 462.542 397.542 485.58 397.542 514 397.542 542.42 420.58 565.458 449 565.458 477.42 565.458 500.458 542.42 500.458 514 500.471 485.593 477.453 462.554 449.046 462.542 449.031 462.542 449.015 462.542 449 462.542Z"/><path d="M449 473.375C471.436 473.375 489.625 491.563 489.625 514 489.625 536.437 471.436 554.625 449 554.625 426.563 554.625 408.375 536.437 408.375 514 408.4 491.574 426.574 473.4 449 473.375M449 470.667C425.068 470.667 405.667 490.068 405.667 514 405.667 537.932 425.068 557.333 449 557.333 472.932 557.333 492.333 537.932 492.333 514 492.307 490.079 472.921 470.693 449 470.667Z"/><path d="M455.589 520.862 432.854 530.162 442.14 507.672 464.875 498.163ZM440.062 505.604 427.875 535.125 457.667 522.938 469.854 493.146Z"/><path d="M451.708 514C451.708 515.496 450.496 516.708 449 516.708 447.504 516.708 446.292 515.496 446.292 514 446.292 512.504 447.504 511.292 449 511.292 450.496 511.292 451.708 512.504 451.708 514Z"/></g></svg>