<svg width="117" height="117" xmlns="http://www.w3.org/2000/svg" xmlns:xlink="http://www.w3.org/1999/xlink" xml:space="preserve" overflow="hidden"><g transform="translate(-588 -451)"><path d="M678.797 497.813C679.661 496.31 680.356 494.716 680.869 493.06L686.231 490.379 686.231 484.285 680.869 481.604C680.42 479.944 679.765 478.347 678.919 476.851L680.869 471.123 676.481 466.735 670.753 468.685C669.257 467.834 667.661 467.174 666 466.722L663.319 461.359 657.225 461.359 654.544 466.722C652.884 467.17 651.287 467.825 649.791 468.672L644.062 466.722 639.675 471.109 641.625 476.837C640.778 478.334 640.123 479.931 639.675 481.591L634.312 484.272 634.312 490.366 639.675 493.047C640.123 494.707 640.779 496.303 641.625 497.8L639.675 503.528 643.941 507.794 649.669 505.844C651.165 506.69 652.762 507.345 654.422 507.794L657.103 513.156 663.197 513.156 665.878 507.794C667.538 507.346 669.135 506.691 670.631 505.844L676.359 507.794 680.747 503.528ZM676.489 498.598 677.944 502.87 675.732 505.021 671.417 503.551 670.364 503.193 669.403 503.754C668.083 504.499 666.674 505.075 665.209 505.466L664.178 505.761 663.698 506.72 661.69 510.742 658.613 510.742 656.606 506.72 656.126 505.761 655.095 505.466C653.63 505.075 652.22 504.499 650.9 503.754L649.939 503.193 648.886 503.551 644.594 505.014 642.473 502.893 643.936 498.599 644.294 497.547 643.733 496.586C642.989 495.265 642.416 493.855 642.027 492.39L641.732 491.359 640.774 490.88 636.75 488.87 636.75 485.788 640.772 483.784 641.73 483.304 642.025 482.273C642.414 480.808 642.987 479.399 643.731 478.078L644.292 477.117 643.933 476.065 642.471 471.77 644.713 469.527 649.006 470.99 650.059 471.356 651.019 470.794C652.34 470.05 653.749 469.477 655.214 469.087L656.25 468.775 656.73 467.816 658.737 463.794 661.818 463.794 663.826 467.816 664.306 468.775 665.336 469.07C666.801 469.459 668.21 470.033 669.531 470.777L670.492 471.339 671.545 470.973 675.837 469.51 678.079 471.753 676.617 476.048 676.258 477.1 676.819 478.061C677.564 479.382 678.14 480.791 678.531 482.256L678.825 483.287 679.784 483.767 683.806 485.776 683.806 488.858 679.784 490.867 678.852 491.333 678.545 492.33C678.086 493.811 677.466 495.236 676.696 496.581L676.135 497.542Z"/><path d="M606.769 528.534 606.769 534.628 612.131 537.309C612.58 538.969 613.235 540.566 614.081 542.063L612.253 547.791 616.519 552.056 622.247 550.228C623.743 551.075 625.34 551.73 627 552.178L629.681 557.541 635.775 557.541 638.456 552.178C640.116 551.73 641.713 551.075 643.209 550.228L648.938 552.178 653.203 547.791 651.375 542.184C652.222 540.688 652.877 539.091 653.325 537.431L658.688 534.75 658.688 528.656 653.325 525.975C652.877 524.315 652.222 522.718 651.375 521.222L653.325 515.494 648.938 511.106 643.209 513.056C641.703 512.23 640.109 511.576 638.456 511.106L635.775 505.744 629.681 505.744 627 511.106C625.34 511.554 623.743 512.209 622.247 513.056L616.519 511.106 612.253 515.372 614.081 521.1C613.256 522.607 612.601 524.201 612.131 525.853ZM614.154 527.559 614.461 526.562C614.881 525.09 615.46 523.667 616.187 522.32L616.733 521.383 616.403 520.351 615.027 516.035 617.17 513.891 621.462 515.354 622.515 515.713 623.475 515.153C624.795 514.406 626.205 513.831 627.67 513.44L628.706 513.156 629.186 512.197 631.194 508.175 634.275 508.175 636.282 512.197 636.749 513.131 637.746 513.437C639.218 513.857 640.64 514.436 641.987 515.164L642.949 515.724 644.002 515.365 648.293 513.902 650.535 516.146 649.073 520.44 648.714 521.491 649.275 522.453C650.021 523.774 650.596 525.183 650.987 526.649L651.281 527.679 652.24 528.159 656.25 530.163 656.25 533.245 652.228 535.253 651.269 535.734 650.975 536.763C650.584 538.229 650.009 539.639 649.263 540.96L648.712 541.904 649.051 542.944 650.423 547.152 648.267 549.38 644.002 547.926 642.949 547.568 641.987 548.128C640.666 548.875 639.255 549.451 637.788 549.841L636.757 550.136 636.278 551.095 634.271 555.117 631.19 555.117 629.183 551.095 628.703 550.136 627.672 549.841C626.206 549.45 624.797 548.875 623.477 548.128L622.541 547.582 621.507 547.911 617.194 549.289 615.028 547.123 616.404 542.807 616.734 541.775 616.188 540.838C615.442 539.518 614.867 538.108 614.476 536.643L614.181 535.612 613.223 535.132 609.201 533.123 609.201 530.041 613.223 528.032Z"/><path d="M660.272 478.185C655.224 478.185 651.131 482.278 651.131 487.326 651.131 492.374 655.224 496.467 660.272 496.467 665.32 496.467 669.412 492.374 669.412 487.326 669.375 482.294 665.304 478.223 660.272 478.185ZM660.272 494.029C656.572 494.024 653.574 491.026 653.569 487.326 653.618 483.645 656.59 480.672 660.272 480.623 663.972 480.628 666.97 483.626 666.975 487.326 666.929 491.01 663.955 493.985 660.272 494.034Z"/><path d="M632.728 540.847C637.776 540.847 641.869 536.755 641.869 531.707 641.869 526.659 637.776 522.566 632.728 522.566 627.68 522.566 623.588 526.659 623.588 531.707 623.581 536.749 627.664 540.841 632.706 540.847 632.714 540.847 632.721 540.847 632.728 540.847ZM632.728 524.998C636.43 524.998 639.431 527.999 639.431 531.701 639.431 535.403 636.43 538.404 632.728 538.404 629.026 538.404 626.025 535.403 626.025 531.701 626.03 528.001 629.028 525.003 632.728 524.998Z"/></g></svg>