<svg width="118" height="118" xmlns="http://www.w3.org/2000/svg" xmlns:xlink="http://www.w3.org/1999/xlink" xml:space="preserve" overflow="hidden"><g transform="translate(-485 -295)"><path d="M599.435 343.798 585.546 320.69 584.317 318.6 582.227 319.952 572.885 325.729C571.779 326.344 570.919 327.45 570.55 328.679 570.304 329.54 570.304 330.523 570.673 331.383 568.092 332.244 565.51 332.735 562.806 332.735 559.119 332.612 555.431 331.998 551.867 330.892 550.146 330.4 548.302 330.031 546.458 329.663L546.213 329.663 546.213 329.663C546.09 329.663 545.967 329.663 545.967 329.663L545.721 329.663 545.475 329.663C545.229 329.663 545.106 329.663 544.86 329.663L544.86 329.663C542.771 329.663 540.681 330.523 539.329 332.121L538.346 333.227C536.748 332.612 535.027 332.244 533.306 332.244 532.938 332.244 532.692 332.244 532.323 332.244 531.585 332.244 530.971 332.367 530.233 332.367 528.635 332.49 527.037 332.612 525.44 332.612 522.735 332.735 520.031 332.121 517.573 331.015 517.696 330.277 517.696 329.54 517.573 328.679 517.204 327.45 516.344 326.344 515.237 325.729L506.019 319.952 503.929 318.6 502.7 320.69 488.565 343.798 487.335 345.888 489.425 347.117 498.89 352.894C500.61 354 502.7 353.877 504.298 352.648L512.287 361.99 512.41 362.235 512.656 362.358 512.656 362.358 510.935 364.325C508.723 366.906 508.969 370.717 511.427 372.929L511.427 372.929 511.427 372.929C512.533 373.912 513.885 374.404 515.36 374.404 515.606 374.404 515.852 374.404 516.098 374.404 516.958 374.281 517.696 374.035 518.433 373.544 518.556 375.019 519.294 376.494 520.4 377.477L520.4 377.477 520.4 377.477C521.506 378.46 522.858 378.952 524.333 378.952 524.456 378.952 524.702 378.952 524.825 378.952 525.44 378.952 526.054 378.829 526.669 378.583 526.792 379.935 527.406 381.287 528.513 382.148L528.513 382.148 528.513 382.148C529.496 383.008 530.725 383.5 531.954 383.5 532.2 383.5 532.323 383.5 532.569 383.5 533.429 383.5 534.167 383.131 534.904 382.763 535.15 383.623 535.642 384.483 536.379 385.098 537.362 385.958 538.592 386.45 539.944 386.327L540.19 386.327 540.435 386.327C541.173 386.204 541.91 385.835 542.525 385.467L542.648 385.59 544.369 386.942 544.492 387.065 544.615 387.188C545.721 387.925 547.073 388.294 548.302 388.294 548.548 388.294 548.794 388.294 549.04 388.294 552.112 388.048 554.571 385.835 555.431 382.885 558.135 382.394 560.348 380.304 561.085 377.6 563.912 376.985 566.125 374.896 566.74 372.192 566.862 372.192 567.108 372.192 567.231 372.192 571.165 371.823 574.115 368.381 573.869 364.448 573.869 364.202 573.869 363.833 573.869 363.587L574.852 362.358 583.333 352.525C584.931 353.877 587.144 353.877 588.987 352.771L598.452 346.994 600.542 345.765 599.435 343.798ZM500.119 350.804 490.654 345.027 504.667 321.919 514.008 327.696C514.992 328.188 515.483 329.417 515.115 330.4L514.377 331.629 503.683 349.329 502.946 350.435C502.577 350.804 501.962 351.05 501.348 351.05 500.979 351.173 500.487 351.05 500.119 350.804ZM515.852 371.946C515.729 371.946 515.606 371.946 515.483 371.946 513.517 371.946 511.919 370.225 511.919 368.258 511.919 367.398 512.287 366.538 512.779 365.923L519.294 358.548C520.031 357.81 521.015 357.319 522.121 357.319 522.981 357.319 523.842 357.688 524.456 358.179 525.931 359.531 526.177 361.867 524.825 363.342L518.31 370.717C517.696 371.454 516.835 371.823 515.852 371.946ZM524.948 376.617C524.825 376.617 524.702 376.617 524.579 376.617 522.612 376.617 521.015 374.896 521.015 372.929 521.015 372.069 521.383 371.208 521.875 370.594L527.529 364.079C528.267 363.342 529.25 362.85 530.356 362.85 531.217 362.85 532.077 363.219 532.692 363.71 534.167 365.062 534.412 367.398 533.06 368.873L527.406 375.388C526.792 376.125 525.931 376.617 524.948 376.617L524.948 376.617ZM532.692 381.165C532.569 381.165 532.446 381.165 532.323 381.165 531.585 381.165 530.971 380.919 530.356 380.427 529.127 379.321 529.004 377.354 530.11 376.125L535.765 369.61C536.379 368.996 537.24 368.627 538.1 368.627 538.838 368.627 539.575 368.873 540.067 369.365 541.296 370.471 541.419 372.438 540.312 373.667L534.658 380.181C534.167 380.796 533.429 381.165 532.692 381.165L532.692 381.165ZM540.19 384.115C539.575 384.115 538.838 383.992 538.346 383.5 537.362 382.64 537.24 381.042 538.1 380.058L542.894 374.527C543.385 374.035 544 373.667 544.737 373.667 545.352 373.667 545.844 373.912 546.335 374.281 547.319 375.142 547.442 376.74 546.581 377.723L541.787 383.254C541.419 383.746 540.804 383.992 540.19 384.115L540.19 384.115ZM567.231 369.733C567.108 369.733 566.862 369.733 566.74 369.733 566.002 369.733 565.265 369.487 564.65 369.242 564.65 369.487 564.773 369.733 564.773 369.979 565.019 372.683 563.052 375.019 560.348 375.265 560.348 375.265 560.348 375.265 560.348 375.265 559.979 375.265 559.487 375.265 559.119 375.142L559.119 375.265C559.365 377.969 557.398 380.304 554.694 380.55 554.694 380.55 554.694 380.55 554.694 380.55 554.325 380.55 553.833 380.55 553.465 380.427L553.465 380.55C553.71 383.254 551.744 385.59 549.04 385.835 549.04 385.835 549.04 385.835 549.04 385.835 548.917 385.835 548.794 385.835 548.671 385.835 547.81 385.835 546.95 385.59 546.09 385.098L544.492 383.869 548.425 379.321C550.146 377.231 549.9 374.158 547.933 372.438 547.073 371.7 545.967 371.208 544.737 371.208 544.369 371.208 543.877 371.208 543.508 371.331 543.385 369.856 542.771 368.504 541.665 367.521 540.681 366.66 539.329 366.169 537.977 366.169L537.977 366.169C537.362 366.169 536.871 366.292 536.256 366.415 536.256 364.694 535.519 363.096 534.167 361.867 533.06 360.883 531.708 360.269 530.233 360.392L530.233 360.392C529.496 360.392 528.758 360.515 528.021 360.76 527.898 359.04 527.16 357.442 525.931 356.335 524.825 355.352 523.473 354.737 521.998 354.86L521.998 354.86C520.277 354.86 518.556 355.598 517.327 356.95L514.131 360.638 514.008 360.515 505.65 350.804 516.344 333.104C519.048 334.456 522.121 335.071 525.194 334.948 527.652 334.948 530.11 334.702 532.323 334.456 532.569 334.456 532.815 334.456 533.06 334.456 534.167 334.456 535.273 334.579 536.256 334.948L529.496 342.938C528.144 344.413 527.529 346.379 527.652 348.346 527.775 350.312 528.758 352.033 530.233 353.385L530.233 353.385 530.233 353.385C531.585 354.492 533.306 355.106 535.027 355.106 535.273 355.106 535.396 355.106 535.642 355.106 537.608 354.983 539.452 354 540.681 352.525L549.04 342.938 549.04 342.938 550.392 344.167 570.181 361.129C571.042 361.867 571.533 363.096 571.533 364.202 571.533 364.325 571.533 364.694 571.533 364.694 571.779 367.275 569.812 369.487 567.231 369.733 567.231 369.733 567.231 369.733 567.231 369.733ZM573.254 360.76C572.885 360.146 572.394 359.654 571.902 359.163L548.917 339.373 538.838 350.927C537.977 351.91 536.871 352.525 535.519 352.648 535.396 352.648 535.273 352.648 535.15 352.648 533.921 352.648 532.815 352.156 531.831 351.419 529.742 349.698 529.496 346.748 531.217 344.658 531.217 344.658 531.34 344.535 531.34 344.535L541.05 333.473C542.033 332.367 543.385 331.875 544.737 331.875 544.86 331.875 544.983 331.875 545.229 331.875 545.475 331.875 545.598 331.998 545.844 331.998 551.498 333.104 556.66 335.071 562.683 335.071 565.756 335.071 568.829 334.579 571.656 333.473L578.785 345.027 582.104 350.558 573.254 360.76ZM587.881 350.804C587.513 351.05 587.021 351.173 586.652 351.173 586.037 351.173 585.423 350.927 584.931 350.435L584.194 349.206 580.875 343.798 573.131 331.015C572.394 329.908 572.763 328.556 573.746 327.819 573.869 327.819 573.869 327.696 573.992 327.696L583.456 321.919 597.346 345.027 587.881 350.804Z"/></g></svg>