<svg width="130" height="130" xmlns="http://www.w3.org/2000/svg" xmlns:xlink="http://www.w3.org/1999/xlink" xml:space="preserve" overflow="hidden"><g transform="translate(-283 -277)"><path d="M348 298.667C358.47 298.667 366.958 307.155 366.958 317.625 366.958 328.095 358.47 336.583 348 336.583 337.53 336.583 329.042 328.095 329.042 317.625 329.052 307.159 337.534 298.677 348 298.667M348 295.958C336.034 295.958 326.333 305.659 326.333 317.625 326.333 329.591 336.034 339.292 348 339.292 359.966 339.292 369.667 329.591 369.667 317.625 369.667 305.659 359.966 295.958 348 295.958Z"/><path d="M391.333 388.042 388.625 388.042 388.625 367.052C388.561 364.176 387.205 361.481 384.935 359.714 378.996 355.157 372.196 351.849 364.945 349.99 359.454 348.3 353.744 347.433 348 347.417 342.258 347.516 336.554 348.382 331.04 349.99 323.865 352.091 317.095 355.387 311.015 359.74 308.767 361.509 307.431 364.192 307.375 367.052L307.375 388.042 304.667 388.042 304.667 367.052C304.734 363.353 306.463 359.881 309.374 357.599 315.727 353.038 322.806 349.585 330.311 347.386 336.062 345.71 342.011 344.809 348 344.708 354.002 344.723 359.968 345.626 365.706 347.388 373.302 349.346 380.423 352.822 386.638 357.607 389.544 359.889 391.268 363.358 391.333 367.052Z"/></g></svg>