<svg width="117" height="117" xmlns="http://www.w3.org/2000/svg" xmlns:xlink="http://www.w3.org/1999/xlink" xml:space="preserve" overflow="hidden"><g transform="translate(-779 -453)"><path d="M836.037 487.648C838.73 487.648 840.912 485.465 840.912 482.773 840.912 480.081 838.73 477.898 836.037 477.898 833.345 477.898 831.162 480.081 831.162 482.773 831.178 485.459 833.352 487.632 836.037 487.648ZM836.037 480.335C837.384 480.335 838.475 481.427 838.475 482.773 838.475 484.119 837.384 485.21 836.037 485.21 834.691 485.21 833.6 484.119 833.6 482.773 833.617 481.434 834.698 480.352 836.037 480.335Z"/><path d="M821.412 511.21C824.105 511.21 826.287 509.027 826.287 506.335 826.287 503.643 824.105 501.46 821.412 501.46 818.72 501.46 816.537 503.643 816.537 506.335 816.537 509.027 818.72 511.21 821.412 511.21ZM821.412 503.897C822.759 503.897 823.85 504.989 823.85 506.335 823.85 507.681 822.759 508.772 821.412 508.772 820.066 508.772 818.975 507.681 818.975 506.335 818.975 504.989 820.066 503.897 821.412 503.897Z"/><path d="M811.553 511.674 810.508 514.692 812.824 517.014 815.842 516.085C816.641 516.552 817.503 516.904 818.401 517.129L819.792 520.031 823.041 520.031 824.318 517.245C825.216 517.019 826.078 516.668 826.877 516.201L829.894 517.245 832.209 514.93 831.284 511.906C831.751 511.108 832.102 510.248 832.329 509.353L835.229 507.96 835.345 504.478 832.441 503.091C832.215 502.193 831.863 501.331 831.396 500.531L832.441 497.514 830.125 495.192 827.108 496.236C826.31 495.77 825.45 495.419 824.554 495.192L823.163 492.29 819.792 492.29 818.4 495.192C817.502 495.418 816.64 495.77 815.84 496.236L812.823 495.192 810.507 497.514 811.553 500.531C811.086 501.329 810.735 502.189 810.508 503.085L807.608 504.478 807.608 507.728 810.508 509.121C810.735 510.017 811.086 510.876 811.553 511.674ZM810.045 506.016 811.564 505.284 812.596 504.79 812.873 503.678C813.045 502.998 813.313 502.346 813.67 501.743L814.218 500.782 813.853 499.737 813.307 498.161 813.47 497.997 815.046 498.542 816.091 498.908 817.052 498.359C817.656 498.003 818.307 497.735 818.987 497.562L820.097 497.284 820.594 496.252 821.325 494.734 821.622 494.734 822.353 496.252 822.849 497.284 823.96 497.562C824.639 497.735 825.291 498.003 825.895 498.359L826.855 498.908 827.901 498.542 829.477 497.997 829.639 498.161 829.091 499.734 828.725 500.78 829.273 501.74C829.629 502.344 829.898 502.996 830.07 503.676L830.347 504.787 831.379 505.282 832.842 505.986 832.829 506.402 831.259 507.155 830.227 507.651 829.949 508.761C829.777 509.441 829.509 510.093 829.153 510.697L828.629 511.613 828.94 512.622 829.437 514.239 829.232 514.443 827.657 513.897 826.612 513.532 825.65 514.081C825.046 514.437 824.395 514.705 823.716 514.877L822.579 515.161 822.091 516.226 821.477 517.594 821.326 517.594 820.595 516.075 820.099 515.043 818.988 514.765C818.309 514.593 817.657 514.325 817.053 513.968L816.137 513.444 815.127 513.755 813.513 514.252 813.308 514.047 813.856 512.475 814.222 511.429 813.673 510.469C813.317 509.865 813.049 509.213 812.876 508.534L812.6 507.422 811.567 506.927 810.049 506.196Z"/><path d="M826.058 488.228 825.014 491.246 827.33 493.567 830.347 492.523C831.145 492.989 832.005 493.34 832.9 493.567L834.292 496.469 837.541 496.469 838.934 493.683C839.832 493.457 840.694 493.105 841.494 492.639L844.51 493.683 846.832 491.361 845.787 488.344C846.29 487.55 846.681 486.691 846.948 485.79L849.848 484.397 849.848 480.915 846.948 479.522C846.721 478.627 846.369 477.767 845.903 476.969L846.948 473.95 844.632 471.635 841.615 472.679C840.817 472.213 839.957 471.861 839.061 471.635L837.663 468.844 834.414 468.844 833.021 471.746C832.123 471.971 831.261 472.323 830.462 472.79L827.445 471.746 825.13 474.067 826.058 477.085C825.592 477.883 825.241 478.742 825.014 479.638L822.113 481.031 822.113 484.282 825.014 485.675C825.241 486.57 825.593 487.43 826.058 488.228ZM824.551 482.564 826.069 481.833 827.102 481.338 827.378 480.227C827.551 479.547 827.819 478.896 828.175 478.292L828.698 477.375 828.389 476.366 827.891 474.75 828.096 474.546 829.671 475.091 830.716 475.457 831.678 474.908C832.281 474.552 832.933 474.283 833.612 474.111L834.724 473.833 835.219 472.801 835.95 471.282 836.159 471.282 836.878 472.721 837.378 473.719 838.465 473.991C839.145 474.163 839.797 474.431 840.401 474.786L841.361 475.336 842.407 474.97 843.983 474.424 844.145 474.588 843.594 476.172 843.228 477.217 843.777 478.178C844.133 478.782 844.401 479.434 844.574 480.114L844.85 481.224 845.883 481.72 847.401 482.451 847.401 482.859 845.883 483.591 844.85 484.085 844.574 485.197C844.354 485.879 844.048 486.529 843.661 487.132L843.112 488.093 843.478 489.138 844.023 490.714 843.859 490.878 842.285 490.333 841.239 489.967 840.278 490.516C839.674 490.872 839.023 491.141 838.343 491.313L837.255 491.584 836.754 492.587 836.035 494.026 835.827 494.026 835.095 492.506 834.599 491.474 833.489 491.196C832.809 491.024 832.158 490.756 831.554 490.4L830.593 489.851 829.548 490.217 827.972 490.762 827.81 490.598 828.354 489.023 828.72 487.977 828.172 487.017C827.816 486.412 827.547 485.761 827.375 485.081L827.098 483.97 826.066 483.475 824.547 482.744Z"/><path d="M810.444 527.364 810.444 558.207 848.956 558.207 848.956 543.582 854.928 543.582C858.771 543.575 862.454 542.041 865.166 539.317 867.839 536.532 869.325 532.818 869.309 528.957L869.309 521.645 874.672 521.645C877.841 521.279 880.644 517.623 877.719 513.114L869.309 498.489 869.309 497.879C870.101 477.653 854.346 460.614 834.119 459.823 813.893 459.031 796.854 474.786 796.062 495.013 796.025 495.968 796.025 496.924 796.062 497.879 796.02 509.407 801.334 520.301 810.444 527.364ZM815.216 467.047C831.462 457.397 852.455 462.745 862.105 478.99 865.473 484.661 867.131 491.184 866.878 497.774L866.878 499.122 867.202 499.687 875.612 514.312 875.644 514.368 875.68 514.423C876.471 515.378 876.705 516.677 876.296 517.848 875.951 518.555 875.287 519.054 874.512 519.189L866.872 519.189 866.872 528.939C866.885 532.154 865.656 535.249 863.441 537.579 861.194 539.856 858.128 541.139 854.928 541.141L846.519 541.141 846.519 555.766 812.881 555.766 812.881 526.169 811.935 525.438C803.402 518.844 798.433 508.646 798.5 497.862L798.5 497.818 798.5 497.774C798.005 485.239 804.424 473.441 815.218 467.047Z"/></g></svg>