<svg width="130" height="130" xmlns="http://www.w3.org/2000/svg" xmlns:xlink="http://www.w3.org/1999/xlink" xml:space="preserve" overflow="hidden"><g transform="translate(-676 -290)"><path d="M801.92 384.792 793.94 371.25 783.33 371.25 778.674 361.771 788.355 361.771 781.97 350.938 773.352 350.938 769.362 342.812 777.183 342.812 771.596 333.333 764.705 333.333 761.379 326.562 767.608 326.562 762.82 318.438 757.385 318.438 755.391 314.375 747.094 314.375 748.804 318.438 733.209 318.438 734.921 314.375 726.621 314.375 724.625 318.438 719.198 318.438 714.41 326.562 720.639 326.562 717.313 333.333 710.417 333.333 704.83 342.812 712.652 342.812 708.661 350.938 700.043 350.938 693.658 361.771 703.339 361.771 698.682 371.25 688.074 371.25 680.092 384.792 692.031 384.792 687.375 394.271 701.282 394.271 705.273 384.792 776.741 384.792 780.733 394.271 794.639 394.271 789.983 384.792ZM792.392 373.958 797.18 382.083 788.649 382.083 784.658 373.958ZM780.422 353.646 783.616 359.062 777.343 359.062 774.682 353.646ZM770.048 336.042 772.444 340.104 768.031 340.104 766.034 336.042ZM761.271 321.146 762.866 323.854 760.048 323.854 758.718 321.146ZM714.965 361.771 767.049 361.771 771.039 371.25 710.974 371.25ZM716.105 359.062 718.385 353.646 763.627 353.646 765.907 359.062ZM719.526 350.938 722.948 342.812 759.066 342.812 762.487 350.938ZM724.088 340.104 725.798 336.042 756.215 336.042 757.927 340.104ZM726.932 333.333 729.775 326.562 752.223 326.562 755.075 333.333ZM749.938 321.146 751.078 323.854 730.929 323.854 732.069 321.146ZM719.146 323.854 720.743 321.146 723.296 321.146 721.964 323.854ZM709.57 340.104 711.965 336.042 715.978 336.042 713.983 340.104ZM698.398 359.062 701.594 353.646 707.334 353.646 704.673 359.062ZM684.832 382.083 689.622 373.958 697.352 373.958 693.36 382.083ZM699.483 391.562 691.722 391.562 728.309 317.083 730.844 317.083ZM706.412 382.083 709.834 373.958 772.18 373.958 775.6 382.083ZM782.531 391.562 751.171 317.083 753.705 317.083 790.292 391.562Z"/></g></svg>